<svg width="254" height="69" viewBox="0 0 254 69" fill="none" xmlns="http://www.w3.org/2000/svg">
<path d="M74.4235 54.2143H62.2713C61.72 54.2143 61.4441 53.9619 61.4441 53.4573V50.7446C61.4441 50.2399 61.72 49.9875 62.2713 49.9875H65.7706V27.4029H62.2713C61.72 27.4029 61.4441 27.1505 61.4441 26.6458V23.9331C61.4441 23.4285 61.72 23.1761 62.2713 23.1761H69.7153C70.2665 23.1761 70.5424 23.4285 70.5424 23.9331V31.8189H70.7333C70.8605 31.146 71.3059 30.2207 72.0694 29.0431C72.8329 27.8655 73.66 26.8982 74.5507 26.1411C75.4837 25.3421 76.799 24.6271 78.4954 23.9962C80.2347 23.3654 82.1857 23.0499 84.3489 23.0499C84.9001 23.0499 85.176 23.3233 85.176 23.8701V27.2136C85.176 27.7603 84.9001 28.0337 84.3489 28.0337H83.0128C79.3648 28.0337 76.4595 29.1903 74.2962 31.5034C72.133 33.8166 71.0514 36.4452 71.0514 39.3891V49.9875H74.4235C74.9747 49.9875 75.2506 50.2399 75.2506 50.7446V53.4573C75.2506 53.9619 74.9747 54.2143 74.4235 54.2143Z" fill="white"/>
<path d="M119.214 54.2143H113.679C111.855 54.2143 110.943 53.3311 110.943 51.5647V48.3473H110.816C107.72 52.5952 103.584 54.719 98.4093 54.719C95.3554 54.719 92.8527 53.9407 90.9017 52.3848C88.9507 50.7865 87.975 48.6417 87.975 45.9501C87.975 42.5014 89.4806 39.978 92.4923 38.3798C95.5462 36.7395 99.7241 35.9194 105.026 35.9194H110.371V35.1624C110.371 29.9052 107.613 27.2767 102.1 27.2767C99.5123 27.2767 97.6459 27.529 96.5006 28.0337C95.3554 28.4964 94.5283 28.8749 94.0193 29.1693C93.5525 29.4636 93.1922 29.695 92.9377 29.8632C92.3014 30.3679 91.8347 30.4099 91.5379 29.9894L89.7564 27.7814C89.4597 27.4449 89.5019 27.1085 89.8837 26.772C90.6049 25.8468 92.0892 24.9425 94.3374 24.0593C96.5856 23.1761 99.2365 22.7345 102.29 22.7345C111.198 22.7345 115.652 26.9402 115.652 35.3517V49.9875H119.214C119.723 49.9875 119.978 50.2399 119.978 50.7446V53.4573C119.978 53.9619 119.723 54.2143 119.214 54.2143ZM110.371 39.7046H105.344C102.884 39.7046 100.848 39.8307 99.2365 40.0831C97.6245 40.3354 96.2461 40.8822 95.1009 41.7233C93.9979 42.5645 93.4466 43.721 93.4466 45.193C93.4466 46.665 94.0406 47.8847 95.2281 48.852C96.4584 49.7771 98.049 50.2399 99.9999 50.2399C104.114 50.2399 107.571 48.4314 110.371 44.8145V39.7046Z" fill="white"/>
<path d="M138.708 68.9763C136.587 68.9763 134.975 68.829 133.872 68.5347C132.812 68.2405 131.942 67.967 131.264 67.7146C130.628 67.5042 130.076 67.273 129.61 67.0207C129.143 66.8102 128.697 66.5791 128.273 66.3267C126.407 65.1069 125.707 64.2237 126.174 63.6771L127.828 61.343C128.083 60.9645 128.443 60.9433 128.91 61.2799C128.952 61.2799 129.079 61.3642 129.291 61.5322C129.546 61.7427 129.779 61.9319 129.991 62.1C130.246 62.2681 130.564 62.4573 130.946 62.6678C131.37 62.9201 131.836 63.1306 132.345 63.2986C132.854 63.5091 133.406 63.6983 134 63.8664C135.399 64.2449 136.948 64.4342 138.644 64.4342C141.698 64.4342 144.137 63.6983 145.961 62.2262C147.828 60.7964 148.761 58.5253 148.761 55.4129V48.2211C147.997 49.9875 146.725 51.5016 144.943 52.7633C143.204 54.025 141.02 54.6559 138.39 54.6559C134.063 54.6559 130.585 53.163 127.955 50.1768C125.368 47.1907 124.074 43.3215 124.074 38.569C124.074 33.8166 125.389 29.9894 128.019 27.0874C130.691 24.1855 134.148 22.7345 138.39 22.7345C141.02 22.7345 143.225 23.3443 145.007 24.564C146.83 25.7416 148.146 27.1926 148.951 28.9169H149.079L149.015 23.9331C149.015 23.4285 149.269 23.1761 149.778 23.1761H157.286C157.795 23.1761 158.05 23.4285 158.05 23.9331V26.6458C158.05 27.1505 157.795 27.4029 157.286 27.4029H153.85V55.4129C153.85 59.9132 152.451 63.2986 149.651 65.5697C146.894 67.8408 143.247 68.9763 138.708 68.9763ZM129.291 38.6952C129.291 42.1439 130.224 44.9407 132.091 47.0856C133.957 49.1885 136.29 50.2399 139.09 50.2399C141.889 50.2399 144.201 49.1885 146.025 47.0856C147.891 44.9827 148.824 42.1649 148.824 38.6321C148.824 35.0993 147.891 32.3025 146.025 30.2417C144.201 28.1809 141.889 27.1505 139.09 27.1505C136.29 27.1505 133.957 28.2019 132.091 30.3048C130.224 32.4077 129.291 35.2044 129.291 38.6952Z" fill="white"/>
<path d="M216.541 54.2143H210.497C209.521 54.2143 208.8 54.025 208.334 53.6465C207.91 53.2261 207.697 52.5322 207.697 51.5647V34.9731C207.697 32.5338 207.103 30.6413 205.916 29.2954C204.771 27.9496 203.053 27.2767 200.762 27.2767C197.412 27.2767 194.782 28.7277 192.873 31.6296C193.127 32.3866 193.255 33.2278 193.255 34.153V49.9875H196.818C197.327 49.9875 197.581 50.2399 197.581 50.7446V53.4573C197.581 53.9619 197.327 54.2143 196.818 54.2143H184.665C184.114 54.2143 183.838 53.9619 183.838 53.4573V50.7446C183.838 50.2399 184.114 49.9875 184.665 49.9875H188.038V34.9731C188.038 32.5338 187.444 30.6413 186.256 29.2954C185.069 27.9496 183.329 27.2767 181.039 27.2767C179.3 27.2767 177.964 27.5501 177.031 28.0968C176.14 28.6015 175.461 29.0641 174.995 29.4847C174.528 29.8632 174.146 30.2417 173.849 30.6202C173.34 31.2931 172.916 31.9871 172.577 32.7021V49.9875H175.694C176.203 49.9875 176.458 50.2399 176.458 50.7446V53.4573C176.458 53.9619 176.203 54.2143 175.694 54.2143H163.797C163.245 54.2143 162.97 53.9619 162.97 53.4573V50.7446C162.97 50.2399 163.245 49.9875 163.797 49.9875H167.296V27.4029H163.797C163.245 27.4029 162.97 27.1505 162.97 26.6458V23.9331C162.97 23.4285 163.245 23.1761 163.797 23.1761H170.032C170.753 23.1761 171.262 23.3233 171.559 23.6177C171.898 23.8701 172.068 24.3537 172.068 25.0687L171.941 28.223H172.131C174.337 24.564 177.752 22.7345 182.375 22.7345C187.041 22.7345 190.222 24.4799 191.919 27.9706C194.336 24.4799 197.751 22.7345 202.162 22.7345C205.556 22.7345 208.185 23.7228 210.052 25.6995C211.96 27.6762 212.915 30.3468 212.915 33.7114L212.978 49.9875H216.541C217.092 49.9875 217.368 50.2399 217.368 50.7446V53.4573C217.368 53.9619 217.092 54.2143 216.541 54.2143Z" fill="white"/>
<path d="M252.801 54.2143H247.265C245.442 54.2143 244.529 53.3311 244.529 51.5647V48.3473H244.402C241.306 52.5952 237.17 54.719 231.995 54.719C228.941 54.719 226.439 53.9407 224.488 52.3848C222.537 50.7865 221.561 48.6417 221.561 45.9501C221.561 42.5014 223.067 39.978 226.078 38.3798C229.132 36.7395 233.31 35.9194 238.612 35.9194H243.957V35.1624C243.957 29.9052 241.2 27.2767 235.686 27.2767C233.098 27.2767 231.232 27.529 230.087 28.0337C228.941 28.4964 228.114 28.8749 227.605 29.1693C227.139 29.4636 226.778 29.695 226.524 29.8632C225.888 30.3679 225.421 30.4099 225.124 29.9894L223.343 27.7814C223.046 27.4449 223.088 27.1085 223.47 26.772C224.191 25.8468 225.675 24.9425 227.924 24.0593C230.172 23.1761 232.823 22.7345 235.877 22.7345C244.784 22.7345 249.238 26.9402 249.238 35.3517V49.9875H252.801C253.31 49.9875 253.564 50.2399 253.564 50.7446V53.4573C253.564 53.9619 253.31 54.2143 252.801 54.2143ZM243.957 39.7046H238.931C236.471 39.7046 234.435 39.8307 232.823 40.0831C231.211 40.3354 229.832 40.8822 228.687 41.7233C227.584 42.5645 227.033 43.721 227.033 45.193C227.033 46.665 227.627 47.8847 228.814 48.852C230.044 49.7771 231.635 50.2399 233.586 50.2399C237.7 50.2399 241.157 48.4314 243.957 44.8145V39.7046Z" fill="white"/>
<path d="M29.0614 55.2H12.4554C11.904 55.2 11.6283 54.9477 11.6283 54.443V51.2256C11.6283 50.7209 11.904 50.4686 12.4554 50.4686H17.2909V14.6359H12.4554C11.904 14.6359 11.6283 14.3835 11.6283 13.8789V10.6615C11.6283 10.1568 11.904 9.90446 12.4554 9.90446H32.0517C36.5478 9.90446 40.2168 11.2082 43.0587 13.8158C45.943 16.3812 47.3852 19.872 47.3852 24.288C47.3852 28.662 45.9854 32.0686 43.186 34.5079C40.3865 36.9051 36.4418 38.1038 31.3518 38.1038H22.8262V50.4686H29.0614C29.5704 50.4686 29.8249 50.7209 29.8249 51.2256V54.443C29.8249 54.9477 29.5704 55.2 29.0614 55.2ZM22.8262 33.6247H31.0973C38.2233 33.6247 41.7862 30.5124 41.7862 24.288C41.7862 21.0496 40.7682 18.6313 38.7323 17.0331C36.7387 15.435 34.2149 14.6359 31.161 14.6359H22.8262V33.6247Z" fill="white"/>
<path d="M24.4804 9.88795H1.61546V14.6317H24.4804V9.88795Z" fill="white"/>
<path fill-rule="evenodd" clip-rule="evenodd" d="M4.97065 50.2714V9.88794H0V53.9679C0 54.6485 0.556359 55.2 1.24266 55.2H53.9315C54.618 55.2 55.1742 54.6485 55.1742 53.9679V1.725C55.1742 1.04451 54.618 0.492855 53.9315 0.492855H1.24266C0.556359 0.492855 0 1.04451 0 1.725V5.42143H4.97065H6.39971H50.2035V50.2714H4.97065Z" fill="white"/>
</svg>
