<?xml version="1.0" encoding="UTF-8" standalone="no"?><!-- Generator: Gravit.io --><svg xmlns="http://www.w3.org/2000/svg" xmlns:xlink="http://www.w3.org/1999/xlink" style="isolation:isolate" viewBox="0 0 1280 640" width="1280pt" height="640pt"><defs><clipPath id="_clipPath_88EZEwSTzR7qSsYPqEtyiLcXZSa5vDOh"><rect width="1280" height="640"/></clipPath></defs><g clip-path="url(#_clipPath_88EZEwSTzR7qSsYPqEtyiLcXZSa5vDOh)"><g filter="url(#loBXQKKrIqYCdqAgMO8JysgZugAFnfAw)"><path d=" M 398.933 410.453 L 342.982 410.453 C 340.444 410.453 339.174 409.281 339.174 406.938 L 339.174 394.342 C 339.174 391.998 340.444 390.826 342.982 390.826 L 359.094 390.826 L 359.094 285.955 L 342.982 285.955 C 340.444 285.955 339.174 284.784 339.174 282.44 L 339.174 269.844 C 339.174 267.5 340.444 266.329 342.982 266.329 L 377.256 266.329 C 379.796 266.329 381.064 267.5 381.064 269.844 L 381.064 306.461 L 381.943 306.461 C 382.528 303.336 384.579 299.04 388.094 293.572 C 391.609 288.104 395.418 283.612 399.519 280.097 C 403.817 276.386 409.87 273.066 417.681 270.137 C 425.688 267.207 434.671 265.743 444.631 265.743 C 447.171 265.743 448.439 267.012 448.439 269.551 L 448.439 285.077 C 448.439 287.615 447.171 288.885 444.631 288.885 L 438.479 288.885 C 421.686 288.885 408.307 294.255 398.347 304.996 C 388.387 315.737 383.407 327.943 383.407 341.613 L 383.407 390.826 L 398.933 390.826 C 401.473 390.826 402.741 391.998 402.741 394.342 L 402.741 406.938 C 402.741 409.281 401.473 410.453 398.933 410.453 Z  M 605.157 410.453 L 579.672 410.453 C 571.275 410.453 567.076 406.352 567.076 398.15 L 567.076 383.21 L 566.49 383.21 C 552.234 402.935 533.193 412.797 509.367 412.797 C 495.306 412.797 483.786 409.183 474.801 401.958 C 465.818 394.536 461.326 384.576 461.326 372.078 C 461.326 356.065 468.26 344.348 482.124 336.926 C 496.185 329.31 515.423 325.502 539.833 325.502 L 564.439 325.502 L 564.439 321.986 C 564.439 297.575 551.747 285.37 526.358 285.37 C 514.446 285.37 505.852 286.541 500.579 288.885 C 495.306 291.033 491.498 292.791 489.155 294.158 C 487.008 295.525 485.347 296.599 484.175 297.38 C 481.245 299.723 479.099 299.919 477.73 297.966 L 469.528 287.713 C 468.162 286.151 468.356 284.588 470.114 283.026 C 473.435 278.73 480.271 274.531 490.619 270.43 C 500.971 266.329 513.175 264.278 527.236 264.278 C 568.247 264.278 588.753 283.807 588.753 322.865 L 588.753 390.826 L 605.157 390.826 C 607.501 390.826 608.672 391.998 608.672 394.342 L 608.672 406.938 C 608.672 409.281 607.501 410.453 605.157 410.453 Z  M 564.439 343.078 L 541.297 343.078 C 529.971 343.078 520.597 343.664 513.175 344.835 C 505.756 346.007 499.407 348.545 494.135 352.452 C 489.059 356.358 486.518 361.727 486.518 368.563 C 486.518 375.399 489.253 381.061 494.72 385.554 C 500.385 389.849 507.708 391.998 516.691 391.998 C 535.635 391.998 551.55 383.601 564.439 366.806 L 564.439 343.078 Z  M 694.908 479 C 685.145 479 677.723 478.316 672.645 476.949 C 667.763 475.583 663.76 474.313 660.634 473.141 C 657.705 472.164 655.167 471.091 653.018 469.919 C 650.871 468.942 648.821 467.868 646.866 466.697 C 638.275 461.033 635.053 456.931 637.199 454.393 L 644.816 443.555 C 645.987 441.797 647.649 441.699 649.796 443.262 C 649.992 443.262 650.578 443.653 651.553 444.434 C 652.725 445.411 653.801 446.29 654.775 447.07 C 655.947 447.85 657.412 448.729 659.17 449.706 C 661.124 450.878 663.271 451.855 665.614 452.636 C 667.958 453.613 670.498 454.492 673.23 455.272 C 679.675 457.03 686.804 457.909 694.615 457.909 C 708.676 457.909 719.906 454.492 728.302 447.656 C 736.896 441.017 741.192 430.471 741.192 416.019 L 741.192 382.624 C 737.676 390.826 731.818 397.857 723.615 403.716 C 715.61 409.574 705.552 412.504 693.443 412.504 C 673.523 412.504 657.51 405.572 645.402 391.705 C 633.49 377.839 627.532 359.874 627.532 337.805 C 627.532 315.737 633.588 297.966 645.695 284.491 C 657.998 271.016 673.915 264.278 693.443 264.278 C 705.552 264.278 715.706 267.11 723.908 272.773 C 732.307 278.241 738.361 284.979 742.07 292.986 L 742.656 292.986 L 742.363 269.844 C 742.363 267.5 743.535 266.329 745.879 266.329 L 780.445 266.329 C 782.788 266.329 783.96 267.5 783.96 269.844 L 783.96 282.44 C 783.96 284.784 782.788 285.955 780.445 285.955 L 764.626 285.955 L 764.626 416.019 C 764.626 436.916 758.182 452.636 745.293 463.181 C 732.6 473.727 715.805 479 694.908 479 Z  M 651.553 338.391 C 651.553 354.404 655.851 367.392 664.442 377.351 C 673.036 387.117 683.776 391.998 696.665 391.998 C 709.554 391.998 720.199 387.117 728.595 377.351 C 737.189 367.586 741.484 354.502 741.484 338.098 C 741.484 321.694 737.189 308.707 728.595 299.137 C 720.199 289.568 709.554 284.784 696.665 284.784 C 683.776 284.784 673.036 289.666 664.442 299.43 C 655.851 309.195 651.553 322.182 651.553 338.391 Z  M 1053.264 410.453 L 1025.435 410.453 C 1020.945 410.453 1017.624 409.574 1015.475 407.817 C 1013.523 405.865 1012.546 402.642 1012.546 398.15 L 1012.546 321.108 C 1012.546 309.781 1009.814 300.993 1004.344 294.743 C 999.071 288.494 991.162 285.37 980.616 285.37 C 965.189 285.37 953.08 292.107 944.292 305.582 C 945.464 309.097 946.05 313.003 946.05 317.299 L 946.05 390.826 L 962.454 390.826 C 964.798 390.826 965.969 391.998 965.969 394.342 L 965.969 406.938 C 965.969 409.281 964.798 410.453 962.454 410.453 L 906.503 410.453 C 903.965 410.453 902.695 409.281 902.695 406.938 L 902.695 394.342 C 902.695 391.998 903.965 390.826 906.503 390.826 L 922.029 390.826 L 922.029 321.108 C 922.029 309.781 919.296 300.993 913.827 294.743 C 908.359 288.494 900.352 285.37 889.806 285.37 C 881.801 285.37 875.649 286.639 871.351 289.178 C 867.25 291.521 864.126 293.669 861.977 295.622 C 859.83 297.38 858.073 299.137 856.704 300.895 C 854.361 304.02 852.409 307.242 850.846 310.562 L 850.846 390.826 L 865.199 390.826 C 867.543 390.826 868.715 391.998 868.715 394.342 L 868.715 406.938 C 868.715 409.281 867.543 410.453 865.199 410.453 L 810.42 410.453 C 807.882 410.453 806.612 409.281 806.612 406.938 L 806.612 394.342 C 806.612 391.998 807.882 390.826 810.42 390.826 L 826.532 390.826 L 826.532 285.955 L 810.42 285.955 C 807.882 285.955 806.612 284.784 806.612 282.44 L 806.612 269.844 C 806.612 267.5 807.882 266.329 810.42 266.329 L 839.128 266.329 C 842.449 266.329 844.792 267.012 846.159 268.379 C 847.722 269.551 848.502 271.797 848.502 275.117 L 847.916 289.764 L 848.795 289.764 C 858.952 272.773 874.672 264.278 895.958 264.278 C 917.44 264.278 932.087 272.383 939.898 288.592 C 951.03 272.383 966.752 264.278 987.061 264.278 C 1002.685 264.278 1014.793 268.867 1023.385 278.046 C 1032.173 287.225 1036.567 299.626 1036.567 315.249 L 1036.86 390.826 L 1053.264 390.826 C 1055.805 390.826 1057.072 391.998 1057.072 394.342 L 1057.072 406.938 C 1057.072 409.281 1055.805 410.453 1053.264 410.453 Z  M 1220.208 410.453 L 1194.722 410.453 C 1186.326 410.453 1182.126 406.352 1182.126 398.15 L 1182.126 383.21 L 1181.54 383.21 C 1167.285 402.935 1148.244 412.797 1124.418 412.797 C 1110.357 412.797 1098.836 409.183 1089.851 401.958 C 1080.869 394.536 1076.376 384.576 1076.376 372.078 C 1076.376 356.065 1083.311 344.348 1097.175 336.926 C 1111.236 329.31 1130.473 325.502 1154.883 325.502 L 1179.49 325.502 L 1179.49 321.986 C 1179.49 297.575 1166.797 285.37 1141.408 285.37 C 1129.496 285.37 1120.903 286.541 1115.63 288.885 C 1110.357 291.033 1106.549 292.791 1104.205 294.158 C 1102.059 295.525 1100.397 296.599 1099.225 297.38 C 1096.296 299.723 1094.149 299.919 1092.781 297.966 L 1084.579 287.713 C 1083.212 286.151 1083.407 284.588 1085.164 283.026 C 1088.485 278.73 1095.321 274.531 1105.67 270.43 C 1116.021 266.329 1128.226 264.278 1142.287 264.278 C 1183.298 264.278 1203.803 283.807 1203.803 322.865 L 1203.803 390.826 L 1220.208 390.826 C 1222.551 390.826 1223.723 391.998 1223.723 394.342 L 1223.723 406.938 C 1223.723 409.281 1222.551 410.453 1220.208 410.453 Z  M 1179.49 343.078 L 1156.348 343.078 C 1145.022 343.078 1135.648 343.664 1128.226 344.835 C 1120.806 346.007 1114.458 348.545 1109.185 352.452 C 1104.109 356.358 1101.569 361.727 1101.569 368.563 C 1101.569 375.399 1104.304 381.061 1109.771 385.554 C 1115.435 389.849 1122.759 391.998 1131.741 391.998 C 1150.686 391.998 1166.601 383.601 1179.49 366.806 L 1179.49 343.078 Z " fill="rgb(255,255,255)"/><path d=" M 190.08 415.03 L 113.624 415.03 C 111.085 415.03 109.816 413.858 109.816 411.515 L 109.816 396.575 C 109.816 394.232 111.085 393.06 113.624 393.06 L 135.887 393.06 L 135.887 226.673 L 113.624 226.673 C 111.085 226.673 109.816 225.501 109.816 223.157 L 109.816 208.218 C 109.816 205.874 111.085 204.702 113.624 204.702 L 203.848 204.702 C 224.549 204.702 241.441 210.756 254.526 222.864 C 267.806 234.777 274.445 250.986 274.445 271.492 C 274.445 291.802 268.001 307.621 255.112 318.947 C 242.222 330.079 224.06 335.645 200.626 335.645 L 161.372 335.645 L 161.372 393.06 L 190.08 393.06 C 192.423 393.06 193.595 394.232 193.595 396.575 L 193.595 411.515 C 193.595 413.858 192.423 415.03 190.08 415.03 Z  M 161.372 314.846 L 199.454 314.846 C 232.263 314.846 248.667 300.395 248.667 271.492 C 248.667 256.454 243.98 245.225 234.606 237.804 C 225.427 230.383 213.808 226.673 199.747 226.673 L 161.372 226.673 L 161.372 314.846 Z " fill="rgb(255,255,255)"/><rect x="63.715" y="204.626" width="105.274" height="22.027" transform="matrix(1,0,0,1,0,0)" fill="rgb(255,255,255)"/><path d=" M 79.163 392.145 L 79.163 204.626 L 56.277 204.626 L 56.277 409.309 C 56.277 412.469 58.839 415.03 61.998 415.03 L 304.585 415.03 C 307.745 415.03 310.306 412.469 310.306 409.309 L 310.306 166.721 C 310.306 163.562 307.745 161 304.585 161 L 61.998 161 C 58.839 161 56.277 163.562 56.277 166.721 L 56.277 183.886 L 79.163 183.886 L 85.742 183.886 L 287.42 183.886 L 287.42 392.145 L 79.163 392.145 Z " fill-rule="evenodd" fill="rgb(255,255,255)"/></g><defs><filter id="loBXQKKrIqYCdqAgMO8JysgZugAFnfAw" x="-200%" y="-200%" width="400%" height="400%" filterUnits="objectBoundingBox" color-interpolation-filters="sRGB"><feGaussianBlur xmlns="http://www.w3.org/2000/svg" in="SourceGraphic" stdDeviation="1.7174436251356113"/><feOffset xmlns="http://www.w3.org/2000/svg" dx="2" dy="3" result="pf_100_offsetBlur"/><feFlood xmlns="http://www.w3.org/2000/svg" flood-color="#000000" flood-opacity="0.5"/><feComposite xmlns="http://www.w3.org/2000/svg" in2="pf_100_offsetBlur" operator="in" result="pf_100_dropShadow"/><feBlend xmlns="http://www.w3.org/2000/svg" in="SourceGraphic" in2="pf_100_dropShadow" mode="normal"/></filter></defs></g></svg>