<?xml version="1.0" encoding="UTF-8" standalone="no"?><!-- Generator: Gravit.io --><svg xmlns="http://www.w3.org/2000/svg" xmlns:xlink="http://www.w3.org/1999/xlink" style="isolation:isolate" viewBox="0 0 500 500" width="500pt" height="500pt"><defs><clipPath id="_clipPath_ZrP6brKun9RzpFi7yjkTEARvLTd2rkyd"><rect width="500" height="500"/></clipPath></defs><g clip-path="url(#_clipPath_ZrP6brKun9RzpFi7yjkTEARvLTd2rkyd)"><g filter="url(#zQusnYmK3Tx0JnUtlgxckkqh61QyFCqI)"><g><path d=" M 258.338 406 L 164.434 406 C 161.316 406 159.757 404.561 159.757 401.683 L 159.757 383.334 C 159.757 380.455 161.316 379.016 164.434 379.016 L 191.778 379.016 L 191.778 174.659 L 164.434 174.659 C 161.316 174.659 159.757 173.22 159.757 170.342 L 159.757 151.993 C 159.757 149.114 161.316 147.675 164.434 147.675 L 275.247 147.675 C 300.672 147.675 321.42 155.111 337.49 169.982 C 353.8 184.613 361.955 204.521 361.955 229.706 C 361.955 254.651 354.04 274.079 338.21 287.991 C 322.379 301.663 300.072 308.499 271.29 308.499 L 223.079 308.499 L 223.079 379.016 L 258.338 379.016 C 261.216 379.016 262.655 380.455 262.655 383.334 L 262.655 401.683 C 262.655 404.561 261.216 406 258.338 406 Z  M 223.079 282.954 L 269.851 282.954 C 310.146 282.954 330.294 265.205 330.294 229.706 C 330.294 211.237 324.538 197.445 313.025 188.331 C 301.751 179.216 287.48 174.659 270.21 174.659 L 223.079 174.659 L 223.079 282.954 Z " fill="rgb(255,255,255)"/><rect x="103.136" y="147.581" width="129.297" height="27.054" transform="matrix(1,0,0,1,0,0)" fill="rgb(255,255,255)"/><path d=" M 122.109 377.892 L 122.109 147.581 L 94.001 147.581 L 94.001 398.973 C 94.001 402.855 97.147 406 101.028 406 L 398.972 406 C 402.854 406 405.999 402.855 405.999 398.973 L 405.999 101.027 C 405.999 97.146 402.854 94 398.972 94 L 101.028 94 C 97.147 94 94.001 97.146 94.001 101.027 L 94.001 122.108 L 122.109 122.108 L 130.19 122.108 L 377.891 122.108 L 377.891 377.892 L 122.109 377.892 Z " fill-rule="evenodd" fill="rgb(255,255,255)"/></g></g><defs><filter id="zQusnYmK3Tx0JnUtlgxckkqh61QyFCqI" x="-200%" y="-200%" width="400%" height="400%" filterUnits="objectBoundingBox" color-interpolation-filters="sRGB"><feGaussianBlur xmlns="http://www.w3.org/2000/svg" in="SourceGraphic" stdDeviation="2.576165437703417"/><feOffset xmlns="http://www.w3.org/2000/svg" dx="2" dy="2" result="pf_100_offsetBlur"/><feFlood xmlns="http://www.w3.org/2000/svg" flood-color="#000000" flood-opacity="0.5"/><feComposite xmlns="http://www.w3.org/2000/svg" in2="pf_100_offsetBlur" operator="in" result="pf_100_dropShadow"/><feBlend xmlns="http://www.w3.org/2000/svg" in="SourceGraphic" in2="pf_100_dropShadow" mode="normal"/></filter></defs></g></svg>