<?xml version="1.0" encoding="UTF-8" standalone="no"?><!-- Generator: Gravit.io --><svg xmlns="http://www.w3.org/2000/svg" xmlns:xlink="http://www.w3.org/1999/xlink" style="isolation:isolate" viewBox="0 0 24 24" width="24pt" height="24pt"><defs><clipPath id="_clipPath_1JCQWyojAzLX49Nr15sBm3dQRvmLabWB"><rect width="24" height="24"/></clipPath></defs><g clip-path="url(#_clipPath_1JCQWyojAzLX49Nr15sBm3dQRvmLabWB)"><path d=" M 15.4 15.64 C 15.4 15.64 14.968 15.124 14.609 14.68 C 16.18 14.237 16.779 13.265 16.779 13.265 C 16.288 13.589 15.82 13.817 15.4 13.973 C 14.8 14.225 14.225 14.381 13.661 14.489 C 12.51 14.704 11.454 14.644 10.555 14.477 C 9.871 14.345 9.284 14.165 8.792 13.961 C 8.516 13.853 8.216 13.721 7.916 13.553 C 7.88 13.529 7.844 13.517 7.808 13.493 C 7.784 13.481 7.772 13.469 7.76 13.469 C 7.545 13.349 7.425 13.265 7.425 13.265 C 7.425 13.265 8 14.213 9.523 14.668 C 9.164 15.124 8.72 15.652 8.72 15.652 C 6.069 15.568 5.062 13.841 5.062 13.841 C 5.062 10.015 6.789 6.909 6.789 6.909 C 8.516 5.626 10.147 5.662 10.147 5.662 L 10.267 5.806 C 8.108 6.417 7.125 7.365 7.125 7.365 C 7.125 7.365 7.389 7.221 7.832 7.029 C 9.116 6.465 10.135 6.321 10.555 6.273 C 10.627 6.261 10.687 6.249 10.759 6.249 C 11.49 6.153 12.318 6.129 13.181 6.225 C 14.321 6.357 15.544 6.693 16.791 7.365 C 16.791 7.365 15.844 6.465 13.805 5.854 L 13.973 5.662 C 13.973 5.662 15.616 5.626 17.331 6.909 C 17.331 6.909 19.058 10.015 19.058 13.841 C 19.058 13.829 18.051 15.556 15.4 15.64 L 15.4 15.64 L 15.4 15.64 L 15.4 15.64 Z  M 20.029 0.109 L 3.959 0.109 C 2.603 0.109 1.5 1.212 1.5 2.567 L 1.5 18.638 C 1.5 19.993 2.603 21.097 3.959 21.097 L 17.559 21.097 L 16.923 18.902 L 18.458 20.317 L 19.909 21.648 L 22.5 23.891 L 22.5 2.567 C 22.488 1.212 21.385 0.109 20.029 0.109 L 20.029 0.109 L 20.029 0.109 Z  M 14.201 10.087 C 13.517 10.087 12.977 10.675 12.977 11.406 C 12.977 12.138 13.529 12.726 14.201 12.726 C 14.884 12.726 15.424 12.138 15.424 11.406 C 15.424 10.675 14.872 10.087 14.201 10.087 L 14.201 10.087 Z  M 9.823 10.087 C 9.14 10.087 8.6 10.675 8.6 11.406 C 8.6 12.138 9.152 12.726 9.823 12.726 C 10.507 12.726 11.047 12.138 11.047 11.406 C 11.059 10.675 10.507 10.087 9.823 10.087 L 9.823 10.087 Z " fill-rule="evenodd" fill="rgb(151,60,243)"/></g></svg>