<?xml version="1.0" encoding="UTF-8" standalone="no"?><!-- Generator: Gravit.io --><svg xmlns="http://www.w3.org/2000/svg" xmlns:xlink="http://www.w3.org/1999/xlink" style="isolation:isolate" viewBox="0 0 1800 600" width="1800pt" height="600pt"><defs><clipPath id="_clipPath_PWWZb6AeHBgkWtOXCAQ73gjauJ1S34Yx"><rect width="1800" height="600"/></clipPath></defs><g clip-path="url(#_clipPath_PWWZb6AeHBgkWtOXCAQ73gjauJ1S34Yx)"><g><path d=" M 126.392 410.712 L 126.392 156.78 L 92.228 156.78 C 91.938 156.78 91.659 156.771 91.391 156.751 L 91.391 156.751 L 39.344 156.751 L 39.344 410.712 L 126.392 410.712 Z  M 92.228 445.832 L 92.228 445.832 L 209.557 445.832 L 209.557 445.832 L 209.557 445.832 L 209.557 445.832 L 385.275 445.832 C 390.125 445.832 394.055 441.903 394.055 437.052 L 394.055 64.78 C 394.055 59.931 390.125 56 385.275 56 L 13.004 56 C 8.155 56 4.224 59.931 4.224 64.78 L 4.224 91.12 L 39.344 91.12 L 49.441 91.12 L 358.934 91.12 L 358.934 410.712 L 165.502 410.712 L 165.502 324.008 L 225.74 324.008 C 261.703 324.008 289.574 315.467 309.354 298.384 C 329.133 281.003 339.023 256.728 339.023 225.56 C 339.023 194.092 328.834 169.218 308.455 150.937 C 288.376 132.356 262.452 123.065 230.685 123.065 L 177.19 123.065 L 177.19 122.948 L 39.344 122.948 L 39.344 122.948 L 4.224 122.948 L 4.224 437.052 C 4.224 441.903 8.155 445.832 13.004 445.832 L 92.228 445.832 Z  M 530.06 438.808 L 444.199 438.808 C 440.304 438.808 438.355 437.01 438.355 433.414 L 438.355 414.084 C 438.355 410.488 440.304 408.69 444.199 408.69 L 468.923 408.69 L 468.923 247.755 L 444.199 247.755 C 440.304 247.755 438.355 245.957 438.355 242.361 L 438.355 223.031 C 438.355 219.435 440.304 217.636 444.199 217.636 L 496.795 217.636 C 500.693 217.636 502.639 219.435 502.639 223.031 L 502.639 279.223 L 503.987 279.223 C 504.886 274.428 508.033 267.835 513.428 259.443 C 518.822 251.052 524.666 244.159 530.959 238.765 C 537.555 233.071 546.844 227.976 558.831 223.48 C 571.119 218.985 584.904 216.737 600.188 216.737 C 604.086 216.737 606.032 218.686 606.032 222.581 L 606.032 246.407 C 606.032 250.303 604.086 252.251 600.188 252.251 L 590.748 252.251 C 564.977 252.251 544.446 260.492 529.161 276.975 C 513.877 293.458 506.235 312.189 506.235 333.167 L 506.235 408.69 L 530.06 408.69 C 533.959 408.69 535.904 410.488 535.904 414.084 L 535.904 433.414 C 535.904 437.01 533.959 438.808 530.06 438.808 L 530.06 438.808 L 530.06 438.808 L 530.06 438.808 Z  M 784.045 335.415 L 748.532 335.415 C 731.151 335.415 716.766 336.314 705.376 338.112 C 693.99 339.91 684.248 343.805 676.156 349.8 C 668.367 355.795 664.468 364.034 664.468 374.525 C 664.468 385.015 668.665 393.704 677.055 400.598 C 685.748 407.19 696.986 410.488 710.771 410.488 C 739.843 410.488 764.265 397.602 784.045 371.828 L 784.045 335.415 L 784.045 335.415 L 784.045 335.415 L 784.045 335.415 Z  M 917.729 328.222 C 917.729 352.796 924.325 372.727 937.509 388.011 C 950.697 402.997 967.179 410.488 986.958 410.488 C 1006.738 410.488 1023.072 402.997 1035.958 388.011 C 1049.145 373.025 1055.737 352.947 1055.737 327.773 C 1055.737 302.599 1049.145 282.669 1035.958 267.985 C 1023.072 253.3 1006.738 245.957 986.958 245.957 C 967.179 245.957 950.697 253.449 937.509 268.434 C 924.325 283.419 917.729 303.348 917.729 328.222 L 917.729 328.222 L 917.729 328.222 L 917.729 328.222 Z  M 1534.192 438.808 L 1491.486 438.808 C 1484.595 438.808 1479.499 437.46 1476.201 434.763 C 1473.206 431.767 1471.706 426.822 1471.706 419.928 L 1471.706 301.7 C 1471.706 284.318 1467.513 270.832 1459.119 261.242 C 1451.027 251.651 1438.89 246.856 1422.707 246.856 C 1399.032 246.856 1380.45 257.196 1366.964 277.874 C 1368.762 283.269 1369.661 289.263 1369.661 295.856 L 1369.661 408.69 L 1394.835 408.69 C 1398.432 408.69 1400.23 410.488 1400.23 414.084 L 1400.23 433.414 C 1400.23 437.01 1398.432 438.808 1394.835 438.808 L 1308.974 438.808 C 1305.079 438.808 1303.13 437.01 1303.13 433.414 L 1303.13 414.084 C 1303.13 410.488 1305.079 408.69 1308.974 408.69 L 1332.799 408.69 L 1332.799 301.7 C 1332.799 284.318 1328.606 270.832 1320.212 261.242 C 1311.822 251.651 1299.533 246.856 1283.35 246.856 C 1271.065 246.856 1261.625 248.804 1255.029 252.7 C 1248.736 256.297 1243.942 259.593 1240.644 262.59 C 1237.35 265.287 1234.653 267.985 1232.553 270.682 C 1228.956 275.477 1225.961 280.422 1223.562 285.516 L 1223.562 408.69 L 1245.589 408.69 C 1249.185 408.69 1250.984 410.488 1250.984 414.084 L 1250.984 433.414 C 1250.984 437.01 1249.185 438.808 1245.589 438.808 L 1161.526 438.808 C 1157.631 438.808 1155.682 437.01 1155.682 433.414 L 1155.682 414.084 C 1155.682 410.488 1157.631 408.69 1161.526 408.69 L 1186.25 408.69 L 1186.25 247.755 L 1161.526 247.755 C 1157.631 247.755 1155.682 245.957 1155.682 242.361 L 1155.682 223.031 C 1155.682 219.435 1157.631 217.636 1161.526 217.636 L 1205.58 217.636 C 1210.676 217.636 1214.273 218.686 1216.369 220.783 C 1218.768 222.581 1219.966 226.028 1219.966 231.123 L 1219.066 253.599 L 1220.415 253.599 C 1236.001 227.526 1260.125 214.49 1292.79 214.49 C 1325.758 214.49 1348.234 226.927 1360.221 251.801 C 1377.303 226.927 1401.431 214.49 1432.596 214.49 C 1456.573 214.49 1475.155 221.532 1488.339 235.618 C 1501.825 249.704 1508.568 268.734 1508.568 292.709 L 1509.018 408.69 L 1534.192 408.69 C 1538.09 408.69 1540.036 410.488 1540.036 414.084 L 1540.036 433.414 C 1540.036 437.01 1538.09 438.808 1534.192 438.808 L 1534.192 438.808 L 1534.192 438.808 L 1534.192 438.808 Z  M 1727.896 335.415 L 1692.383 335.415 C 1675.002 335.415 1660.617 336.314 1649.227 338.112 C 1637.841 339.91 1628.099 343.805 1620.007 349.8 C 1612.218 355.795 1608.319 364.034 1608.319 374.525 C 1608.319 385.015 1612.516 393.704 1620.907 400.598 C 1629.599 407.19 1640.837 410.488 1654.622 410.488 C 1683.694 410.488 1708.117 397.602 1727.896 371.828 L 1727.896 335.415 L 1727.896 335.415 L 1727.896 335.415 L 1727.896 335.415 Z  M 165.502 292.091 L 223.942 292.091 C 274.29 292.091 299.464 269.914 299.464 225.56 C 299.464 202.483 292.271 185.251 277.886 173.863 C 263.801 162.474 245.969 156.78 224.391 156.78 L 165.502 156.78 L 165.502 292.091 L 165.502 292.091 L 165.502 292.091 L 165.502 292.091 Z  M 846.531 438.808 L 807.421 438.808 C 794.535 438.808 788.091 432.515 788.091 419.928 L 788.091 397.002 L 787.192 397.002 C 765.316 427.272 736.096 442.405 699.532 442.405 C 677.954 442.405 660.275 436.859 646.487 425.772 C 632.702 414.382 625.808 399.098 625.808 379.919 C 625.808 355.346 636.45 337.364 657.725 325.975 C 679.303 314.287 708.825 308.443 746.284 308.443 L 784.045 308.443 L 784.045 303.048 C 784.045 265.587 764.567 246.856 725.605 246.856 C 707.325 246.856 694.138 248.655 686.046 252.251 C 677.954 255.548 672.11 258.245 668.514 260.342 C 665.22 262.44 662.67 264.089 660.872 265.287 C 656.377 268.884 653.082 269.183 650.982 266.186 L 638.395 250.453 C 636.299 248.055 636.597 245.658 639.294 243.26 C 644.39 236.667 654.881 230.224 670.762 223.93 C 686.647 217.636 705.376 214.49 726.954 214.49 C 789.889 214.49 821.357 244.459 821.357 304.397 L 821.357 408.69 L 846.531 408.69 C 850.127 408.69 851.925 410.488 851.925 414.084 L 851.925 433.414 C 851.925 437.01 850.127 438.808 846.531 438.808 L 846.531 438.808 L 846.531 438.808 L 846.531 438.808 Z  M 984.261 544 C 969.279 544 957.889 542.95 950.096 540.853 C 942.605 538.757 936.463 536.807 931.665 535.009 C 927.17 533.51 923.275 531.863 919.977 530.064 C 916.683 528.565 913.536 526.918 910.537 525.119 C 897.353 516.427 892.408 510.134 895.702 506.239 L 907.39 489.606 C 909.188 486.909 911.738 486.758 915.032 489.157 C 915.334 489.157 916.233 489.757 917.729 490.955 C 919.528 492.454 921.178 493.803 922.674 495.001 C 924.473 496.198 926.72 497.547 929.417 499.046 C 932.417 500.845 935.711 502.344 939.307 503.542 C 942.904 505.041 946.802 506.39 950.995 507.588 C 960.885 510.285 971.825 511.633 983.811 511.633 C 1005.389 511.633 1022.623 506.39 1035.508 495.9 C 1048.696 485.711 1055.288 469.528 1055.288 447.35 L 1055.288 396.102 C 1049.893 408.69 1040.902 419.478 1028.315 428.469 C 1016.03 437.46 1000.595 441.955 982.013 441.955 C 951.445 441.955 926.871 431.317 908.289 410.038 C 890.009 388.759 880.867 361.19 880.867 327.323 C 880.867 293.458 890.16 266.186 908.739 245.508 C 927.619 224.829 952.045 214.49 982.013 214.49 C 1000.595 214.49 1016.178 218.835 1028.765 227.526 C 1041.654 235.918 1050.943 246.257 1056.636 258.544 L 1057.535 258.544 L 1057.086 223.031 C 1057.086 219.435 1058.884 217.636 1062.48 217.636 L 1115.526 217.636 C 1119.122 217.636 1120.92 219.435 1120.92 223.031 L 1120.92 242.361 C 1120.92 245.957 1119.122 247.755 1115.526 247.755 L 1091.251 247.755 L 1091.251 447.35 C 1091.251 479.418 1081.361 503.542 1061.581 519.725 C 1042.104 535.908 1016.329 544 984.261 544 L 984.261 544 L 984.261 544 L 984.261 544 Z  M 1790.382 438.808 L 1751.272 438.808 C 1738.387 438.808 1731.942 432.515 1731.942 419.928 L 1731.942 397.002 L 1731.043 397.002 C 1709.167 427.272 1679.947 442.405 1643.383 442.405 C 1621.806 442.405 1604.126 436.859 1590.338 425.772 C 1576.553 414.382 1569.659 399.098 1569.659 379.919 C 1569.659 355.346 1580.301 337.364 1601.576 325.975 C 1623.154 314.287 1652.676 308.443 1690.135 308.443 L 1727.896 308.443 L 1727.896 303.048 C 1727.896 265.587 1708.419 246.856 1669.456 246.856 C 1651.176 246.856 1637.989 248.655 1629.897 252.251 C 1621.806 255.548 1615.962 258.245 1612.365 260.342 C 1609.071 262.44 1606.521 264.089 1604.723 265.287 C 1600.228 268.884 1596.933 269.183 1594.833 266.186 L 1582.246 250.453 C 1580.15 248.055 1580.448 245.658 1583.145 243.26 C 1588.241 236.667 1598.732 230.224 1614.613 223.93 C 1630.498 217.636 1649.227 214.49 1670.805 214.49 C 1733.74 214.49 1765.208 244.459 1765.208 304.397 L 1765.208 408.69 L 1790.382 408.69 C 1793.978 408.69 1795.776 410.488 1795.776 414.084 L 1795.776 433.414 C 1795.776 437.01 1793.978 438.808 1790.382 438.808 L 1790.382 438.808 L 1790.382 438.808 L 1790.382 438.808 Z " fill-rule="evenodd" fill="rgb(151,60,243)"/></g></g></svg>