<svg version="1.1" viewBox="0.0 0.0 960.0 720.0" fill="none" stroke="none" stroke-linecap="square" stroke-miterlimit="10" xmlns:xlink="http://www.w3.org/1999/xlink" xmlns="http://www.w3.org/2000/svg"><clipPath id="p.0"><path d="m0 0l960.0 0l0 720.0l-960.0 0l0 -720.0z" clip-rule="nonzero"/></clipPath><g clip-path="url(#p.0)"><path fill="#000000" fill-opacity="0.0" d="m0 0l960.0 0l0 720.0l-960.0 0z" fill-rule="evenodd"/><path fill="#ffffff" d="m36.593174 403.90552l0 0c0 -140.64563 56.108944 -254.66142 125.322845 -254.66142l0 0c33.23767 0 65.11403 26.830322 88.61662 74.58861c23.502579 47.75827 36.706192 112.53241 36.706192 180.07281l0 0c0 140.64563 -56.108932 254.66144 -125.322815 254.66144l0 0c-69.2139 0 -125.322845 -114.01581 -125.322845 -254.66144z" fill-rule="evenodd"/><path stroke="#000000" stroke-width="1.0" stroke-linejoin="round" stroke-linecap="butt" d="m36.593174 403.90552l0 0c0 -140.64563 56.108944 -254.66142 125.322845 -254.66142l0 0c33.23767 0 65.11403 26.830322 88.61662 74.58861c23.502579 47.75827 36.706192 112.53241 36.706192 180.07281l0 0c0 140.64563 -56.108932 254.66144 -125.322815 254.66144l0 0c-69.2139 0 -125.322845 -114.01581 -125.322845 -254.66144z" fill-rule="evenodd"/><path fill="#000000" d="m160.37694 187.62552l0 -3.203125l3.203125 0l0 3.203125l-3.203125 0z" fill-rule="nonzero"/><path fill="#000000" d="m160.37694 225.62552l0 -3.203125l3.203125 0l0 3.203125l-3.203125 0z" fill-rule="nonzero"/><path fill="#000000" d="m155.19725 269.9849l0 -29.265625l6.203125 0l0 2.328125l-3.390625 0l0 24.609375l3.390625 0l0 2.328125l-6.203125 0zm13.53125 0l-6.203125 0l0 -2.328125l3.390625 0l0 -24.609375l-3.390625 0l0 -2.328125l6.203125 0l0 29.265625z" fill-rule="nonzero"/><path fill="#000000" d="m132.95506 345.9849l0 -29.265625l6.203125 0l0 2.328125l-3.390625 0l0 24.609375l3.390625 0l0 2.328125l-6.203125 0zm8.46875 -11.65625l2.703125 -0.25q0.34375 1.90625 1.3125 2.765625q0.96875 0.859375 2.484375 0.859375q1.296875 0 2.265625 -0.59375q0.984375 -0.59375 1.609375 -1.578125q0.625 -1.0 1.046875 -2.6875q0.421875 -1.6875 0.421875 -3.4375q0 -0.1875 -0.015625 -0.5625q-0.84375 1.34375 -2.3125 2.1875q-1.453125 0.828125 -3.15625 0.828125q-2.84375 0 -4.8125 -2.0625q-1.96875 -2.0625 -1.96875 -5.4375q0 -3.484375 2.046875 -5.609375q2.0625 -2.125 5.15625 -2.125q2.234375 0 4.078125 1.203125q1.859375 1.203125 2.8125 3.4375q0.96875 2.21875 0.96875 6.4375q0 4.390625 -0.953125 7.0q-0.953125 2.59375 -2.84375 3.953125q-1.875 1.359375 -4.40625 1.359375q-2.6875 0 -4.390625 -1.484375q-1.703125 -1.5 -2.046875 -4.203125zm11.515625 -10.109375q0 -2.421875 -1.296875 -3.84375q-1.28125 -1.421875 -3.09375 -1.421875q-1.875 0 -3.265625 1.53125q-1.390625 1.53125 -1.390625 3.96875q0 2.1875 1.3125 3.5625q1.328125 1.359375 3.265625 1.359375q1.953125 0 3.203125 -1.359375q1.265625 -1.375 1.265625 -3.796875zm7.375 15.40625l0 -3.203125l3.203125 0l0 3.203125q0 1.765625 -0.625 2.84375q-0.625 1.09375 -1.984375 1.6875l-0.78125 -1.203125q0.890625 -0.390625 1.3125 -1.15625q0.421875 -0.75 0.46875 -2.171875l-1.59375 0zm7.375 -6.0l2.953125 -0.25q0.328125 2.15625 1.515625 3.25q1.203125 1.078125 2.890625 1.078125q2.03125 0 3.4375 -1.53125q1.40625 -1.53125 1.40625 -4.0625q0 -2.40625 -1.359375 -3.796875q-1.34375 -1.390625 -3.53125 -1.390625q-1.359375 0 -2.453125 0.625q-1.09375 0.609375 -1.71875 1.59375l-2.640625 -0.34375l2.21875 -11.765625l11.390625 0l0 2.6875l-9.140625 0l-1.234375 6.15625q2.0625 -1.4375 4.328125 -1.4375q3.0 0 5.0625 2.078125q2.0625 2.078125 2.0625 5.34375q0 3.109375 -1.8125 5.375q-2.203125 2.78125 -6.015625 2.78125q-3.125 0 -5.109375 -1.75q-1.96875 -1.75 -2.25 -4.640625zm23.28125 12.359375l-6.203125 0l0 -2.328125l3.390625 0l0 -24.609375l-3.390625 0l0 -2.328125l6.203125 0l0 29.265625z" fill-rule="nonzero"/><path fill="#000000" d="m132.95506 421.9849l0 -29.265625l6.203125 0l0 2.328125l-3.390625 0l0 24.609375l3.390625 0l0 2.328125l-6.203125 0zm8.234375 -26.265625l0 -2.703125l14.828125 0l0 2.1875q-2.1875 2.328125 -4.34375 6.1875q-2.140625 3.859375 -3.3125 7.9375q-0.84375 2.875 -1.078125 6.296875l-2.890625 0q0.046875 -2.703125 1.0625 -6.53125q1.015625 -3.828125 2.90625 -7.375q1.90625 -3.5625 4.046875 -6.0l-11.21875 0zm19.125 19.90625l0 -3.203125l3.203125 0l0 3.203125q0 1.765625 -0.625 2.84375q-0.625 1.09375 -1.984375 1.6875l-0.78125 -1.203125q0.890625 -0.390625 1.3125 -1.15625q0.421875 -0.75 0.46875 -2.171875l-1.59375 0zm17.96875 0l-2.8125 0l0 -17.921875q-1.015625 0.96875 -2.671875 1.9375q-1.640625 0.96875 -2.953125 1.453125l0 -2.71875q2.359375 -1.109375 4.125 -2.6875q1.765625 -1.578125 2.5 -3.0625l1.8125 0l0 23.0zm12.6875 6.359375l-6.203125 0l0 -2.328125l3.390625 0l0 -24.609375l-3.390625 0l0 -2.328125l6.203125 0l0 29.265625z" fill-rule="nonzero"/><path fill="#000000" d="m146.29881 497.9849l0 -29.265625l6.203125 0l0 2.328125l-3.390625 0l0 24.609375l3.390625 0l0 2.328125l-6.203125 0zm12.375 -18.78125q-1.75 -0.640625 -2.59375 -1.828125q-0.84375 -1.1875 -0.84375 -2.84375q0 -2.5 1.796875 -4.203125q1.796875 -1.703125 4.78125 -1.703125q3.0 0 4.828125 1.75q1.828125 1.734375 1.828125 4.234375q0 1.59375 -0.84375 2.78125q-0.828125 1.171875 -2.53125 1.8125q2.109375 0.6875 3.203125 2.21875q1.109375 1.53125 1.109375 3.65625q0 2.9375 -2.078125 4.9375q-2.078125 2.0 -5.46875 2.0q-3.390625 0 -5.46875 -2.0q-2.078125 -2.015625 -2.078125 -5.015625q0 -2.234375 1.125 -3.734375q1.140625 -1.515625 3.234375 -2.0625zm-0.5625 -4.765625q0 1.625 1.046875 2.65625q1.046875 1.03125 2.71875 1.03125q1.625 0 2.65625 -1.015625q1.046875 -1.03125 1.046875 -2.515625q0 -1.546875 -1.078125 -2.59375q-1.0625 -1.0625 -2.65625 -1.0625q-1.609375 0 -2.671875 1.03125q-1.0625 1.03125 -1.0625 2.46875zm-0.90625 10.578125q0 1.203125 0.5625 2.328125q0.578125 1.125 1.703125 1.75q1.125 0.609375 2.421875 0.609375q2.015625 0 3.328125 -1.296875q1.3125 -1.296875 1.3125 -3.296875q0 -2.03125 -1.359375 -3.359375q-1.34375 -1.328125 -3.375 -1.328125q-1.984375 0 -3.296875 1.3125q-1.296875 1.3125 -1.296875 3.28125zm20.421875 12.96875l-6.203125 0l0 -2.328125l3.390625 0l0 -24.609375l-3.390625 0l0 -2.328125l6.203125 0l0 29.265625z" fill-rule="nonzero"/><path fill="#000000" d="m92.92382 573.98486l0 -29.265625l6.203125 0l0 2.328125l-3.390625 0l0 24.609375l3.390625 0l0 2.328125l-6.203125 0zm18.640625 -6.359375l-2.8125 0l0 -17.921875q-1.015625 0.96875 -2.671875 1.9375q-1.640625 0.96875 -2.953125 1.453125l0 -2.71875q2.359375 -1.109375 4.125 -2.6875q1.765625 -1.578125 2.5 -3.0625l1.8125 0l0 23.0zm8.71875 0l0 -3.203125l3.203125 0l0 3.203125q0 1.765625 -0.625 2.84375q-0.625 1.09375 -1.984375 1.6875l-0.78125 -1.203125q0.890625 -0.390625 1.3125 -1.15625q0.421875 -0.75 0.46875 -2.171875l-1.59375 0zm22.156242 -2.703125l0 2.703125l-15.140617 0q-0.03125 -1.015625 0.328125 -1.953125q0.5781174 -1.546875 1.8437424 -3.046875q1.28125 -1.5 3.6875 -3.46875q3.734375 -3.0625 5.046875 -4.84375q1.3125 -1.796875 1.3125 -3.390625q0 -1.671875 -1.203125 -2.8125q-1.1875 -1.15625 -3.109375 -1.15625q-2.03125 0 -3.25 1.21875q-1.21875 1.21875 -1.234375 3.375l-2.8906174 -0.296875q0.29686737 -3.234375 2.2343674 -4.921875q1.9375 -1.703125 5.203125 -1.703125q3.296875 0 5.21875 1.828125q1.921875 1.828125 1.921875 4.53125q0 1.375 -0.5625 2.703125q-0.5625 1.328125 -1.875 2.796875q-1.296875 1.46875 -4.328125 4.03125q-2.53125 2.125 -3.25 2.890625q-0.71875 0.75 -1.1875 1.515625l11.234375 0zm4.53125 2.703125l0 -3.203125l3.203125 0l0 3.203125q0 1.765625 -0.625 2.84375q-0.625 1.09375 -1.984375 1.6875l-0.78125 -1.203125q0.890625 -0.390625 1.3125 -1.15625q0.421875 -0.75 0.46875 -2.171875l-1.59375 0zm7.390625 -6.046875l2.8125 -0.375q0.484375 2.390625 1.640625 3.453125q1.171875 1.046875 2.84375 1.046875q1.984375 0 3.34375 -1.375q1.375 -1.375 1.375 -3.40625q0 -1.9375 -1.265625 -3.1875q-1.265625 -1.265625 -3.21875 -1.265625q-0.796875 0 -1.984375 0.3125l0.3125 -2.46875q0.28125 0.03125 0.453125 0.03125q1.796875 0 3.234375 -0.9375q1.4375 -0.9375 1.4375 -2.890625q0 -1.546875 -1.046875 -2.5625q-1.046875 -1.015625 -2.703125 -1.015625q-1.640625 0 -2.734375 1.03125q-1.09375 1.03125 -1.40625 3.09375l-2.8125 -0.5q0.515625 -2.828125 2.34375 -4.375q1.828125 -1.5625 4.546875 -1.5625q1.875 0 3.453125 0.8125q1.578125 0.796875 2.40625 2.1875q0.84375 1.390625 0.84375 2.953125q0 1.484375 -0.796875 2.703125q-0.796875 1.21875 -2.359375 1.9375q2.03125 0.46875 3.15625 1.953125q1.125 1.46875 1.125 3.6875q0 3.0 -2.1875 5.09375q-2.1875 2.078125 -5.53125 2.078125q-3.015625 0 -5.015625 -1.796875q-1.984375 -1.796875 -2.265625 -4.65625zm19.296875 6.046875l0 -3.203125l3.203125 0l0 3.203125q0 1.765625 -0.625 2.84375q-0.625 1.09375 -1.984375 1.6875l-0.78125 -1.203125q0.890625 -0.390625 1.3125 -1.15625q0.421875 -0.75 0.46875 -2.171875l-1.59375 0zm16.390625 0l0 -5.484375l-9.9375 0l0 -2.578125l10.453125 -14.84375l2.296875 0l0 14.84375l3.09375 0l0 2.578125l-3.09375 0l0 5.484375l-2.8125 0zm0 -8.0625l0 -10.328125l-7.171875 10.328125l7.171875 0zm10.296875 8.0625l0 -3.203125l3.203125 0l0 3.203125q0 1.765625 -0.625 2.84375q-0.625 1.09375 -1.984375 1.6875l-0.78125 -1.203125q0.890625 -0.390625 1.3125 -1.15625q0.421875 -0.75 0.46875 -2.171875l-1.59375 0zm7.375 -6.0l2.953125 -0.25q0.328125 2.15625 1.515625 3.25q1.203125 1.078125 2.890625 1.078125q2.03125 0 3.4375 -1.53125q1.40625 -1.53125 1.40625 -4.0625q0 -2.40625 -1.359375 -3.796875q-1.34375 -1.390625 -3.53125 -1.390625q-1.359375 0 -2.453125 0.625q-1.09375 0.609375 -1.71875 1.59375l-2.640625 -0.34375l2.21875 -11.765625l11.390625 0l0 2.6875l-9.140625 0l-1.234375 6.15625q2.0625 -1.4375 4.328125 -1.4375q3.0 0 5.0625 2.078125q2.0625 2.078125 2.0625 5.34375q0 3.109375 -1.8125 5.375q-2.203125 2.78125 -6.015625 2.78125q-3.125 0 -5.109375 -1.75q-1.96875 -1.75 -2.25 -4.640625zm23.28125 12.359375l-6.203125 0l0 -2.328125l3.390625 0l0 -24.609375l-3.390625 0l0 -2.328125l6.203125 0l0 29.265625z" fill-rule="nonzero"/><path fill="#000000" d="m160.37694 605.6255l0 -3.203125l3.203125 0l0 3.203125l-3.203125 0z" fill-rule="nonzero"/><path fill="#000000" d="m160.37694 643.6255l0 -3.203125l3.203125 0l0 3.203125l-3.203125 0z" fill-rule="nonzero"/><path fill="#000000" fill-opacity="0.0" d="m82.16798 70.732285l159.49606 0l0 60.283463l-159.49606 0z" fill-rule="evenodd"/><path fill="#000000" d="m137.4082 116.81166l0 -29.265625l6.203125 0l0 2.328125l-3.390625 0l0 24.609375l3.390625 0l0 2.328125l-6.203125 0zm9.703125 -6.359375l0 -22.90625l3.03125 0l0 22.90625l-3.03125 0zm8.015625 0l0 -16.59375l2.53125 0l0 2.359375q1.828125 -2.734375 5.28125 -2.734375q1.5 0 2.75 0.546875q1.265625 0.53125 1.890625 1.40625q0.625 0.875 0.875 2.078125q0.15625 0.78125 0.15625 2.734375l0 10.203125l-2.8125 0l0 -10.09375q0 -1.71875 -0.328125 -2.5625q-0.328125 -0.859375 -1.171875 -1.359375q-0.828125 -0.515625 -1.953125 -0.515625q-1.796875 0 -3.109375 1.140625q-1.296875 1.140625 -1.296875 4.328125l0 9.0625l-2.8125 0zm23.9375 -2.515625l0.40625 2.484375q-1.1875 0.25 -2.125 0.25q-1.53125 0 -2.375 -0.484375q-0.84375 -0.484375 -1.1875 -1.265625q-0.34375 -0.796875 -0.34375 -3.328125l0 -9.546875l-2.0625 0l0 -2.1875l2.0625 0l0 -4.109375l2.796875 -1.6875l0 5.796875l2.828125 0l0 2.1875l-2.828125 0l0 9.703125q0 1.203125 0.140625 1.546875q0.15625 0.34375 0.484375 0.546875q0.34375 0.203125 0.96875 0.203125q0.46875 0 1.234375 -0.109375zm7.453125 8.875l-6.203125 0l0 -2.328125l3.390625 0l0 -24.609375l-3.390625 0l0 -2.328125l6.203125 0l0 29.265625z" fill-rule="nonzero"/><path fill="#ffffff" d="m629.0525 403.90552l0 0c0 -140.64563 56.108948 -254.66142 125.322815 -254.66142l0 0c33.237732 0 65.114075 26.830322 88.61664 74.58861c23.502625 47.75827 36.706238 112.53241 36.706238 180.07281l0 0c0 140.64563 -56.108948 254.66144 -125.322876 254.66144l0 0c-69.21387 0 -125.322815 -114.01581 -125.322815 -254.66144z" fill-rule="evenodd"/><path stroke="#000000" stroke-width="1.0" stroke-linejoin="round" stroke-linecap="butt" d="m629.0525 403.90552l0 0c0 -140.64563 56.108948 -254.66142 125.322815 -254.66142l0 0c33.237732 0 65.114075 26.830322 88.61664 74.58861c23.502625 47.75827 36.706238 112.53241 36.706238 180.07281l0 0c0 140.64563 -56.108948 254.66144 -125.322876 254.66144l0 0c-69.21387 0 -125.322815 -114.01581 -125.322815 -254.66144z" fill-rule="evenodd"/><path fill="#000000" d="m752.83624 187.62552l0 -3.203125l3.203125 0l0 3.203125l-3.203125 0z" fill-rule="nonzero"/><path fill="#000000" d="m752.83624 225.62552l0 -3.203125l3.203125 0l0 3.203125l-3.203125 0z" fill-rule="nonzero"/><path fill="#000000" d="m746.805 252.32864q0 -4.0625 0.828125 -6.53125q0.84375 -2.484375 2.484375 -3.828125q1.65625 -1.34375 4.15625 -1.34375q1.84375 0 3.234375 0.75q1.390625 0.734375 2.296875 2.140625q0.90625 1.390625 1.421875 3.40625q0.515625 2.0 0.515625 5.40625q0 4.03125 -0.828125 6.515625q-0.828125 2.46875 -2.484375 3.828125q-1.640625 1.34375 -4.15625 1.34375q-3.3125 0 -5.203125 -2.375q-2.265625 -2.859375 -2.265625 -9.3125zm2.890625 0q0 5.640625 1.3125 7.515625q1.328125 1.859375 3.265625 1.859375q1.9375 0 3.25 -1.875q1.328125 -1.875 1.328125 -7.5q0 -5.65625 -1.328125 -7.515625q-1.3125 -1.859375 -3.28125 -1.859375q-1.9375 0 -3.09375 1.640625q-1.453125 2.09375 -1.453125 7.734375z" fill-rule="nonzero"/><path fill="#000000" d="m761.58624 336.9224l0 2.703125l-15.140625 0q-0.03125 -1.015625 0.328125 -1.953125q0.578125 -1.546875 1.84375 -3.046875q1.28125 -1.5 3.6875 -3.46875q3.734375 -3.0625 5.046875 -4.84375q1.3125 -1.796875 1.3125 -3.390625q0 -1.671875 -1.203125 -2.8125q-1.1875 -1.15625 -3.109375 -1.15625q-2.03125 0 -3.25 1.21875q-1.21875 1.21875 -1.234375 3.375l-2.890625 -0.296875q0.296875 -3.234375 2.234375 -4.921875q1.9375 -1.703125 5.203125 -1.703125q3.296875 0 5.21875 1.828125q1.921875 1.828125 1.921875 4.53125q0 1.375 -0.5625 2.703125q-0.5625 1.328125 -1.875 2.796875q-1.296875 1.46875 -4.328125 4.03125q-2.53125 2.125 -3.25 2.890625q-0.71875 0.75 -1.1875 1.515625l11.234375 0z" fill-rule="nonzero"/><path fill="#000000" d="m752.83624 377.62552l0 -3.203125l3.203125 0l0 3.203125l-3.203125 0z" fill-rule="nonzero"/><path fill="#000000" d="m752.83624 415.62552l0 -3.203125l3.203125 0l0 3.203125l-3.203125 0z" fill-rule="nonzero"/><path fill="#000000" d="m752.83624 453.62552l0 -3.203125l3.203125 0l0 3.203125l-3.203125 0z" fill-rule="nonzero"/><path fill="#000000" d="m757.39874 491.62552l-2.8125 0l0 -17.921875q-1.015625 0.96875 -2.671875 1.9375q-1.640625 0.96875 -2.953125 1.453125l0 -2.71875q2.359375 -1.109375 4.125 -2.6875q1.765625 -1.578125 2.5 -3.0625l1.8125 0l0 23.0z" fill-rule="nonzero"/><path fill="#000000" d="m746.805 561.6255l2.953125 -0.25q0.328125 2.15625 1.515625 3.25q1.203125 1.078125 2.890625 1.078125q2.03125 0 3.4375 -1.53125q1.40625 -1.53125 1.40625 -4.0625q0 -2.40625 -1.359375 -3.796875q-1.34375 -1.390625 -3.53125 -1.390625q-1.359375 0 -2.453125 0.625q-1.09375 0.609375 -1.71875 1.59375l-2.640625 -0.34375l2.21875 -11.765625l11.390625 0l0 2.6875l-9.140625 0l-1.234375 6.15625q2.0625 -1.4375 4.328125 -1.4375q3.0 0 5.0625 2.078125q2.0625 2.078125 2.0625 5.34375q0 3.109375 -1.8125 5.375q-2.203125 2.78125 -6.015625 2.78125q-3.125 0 -5.109375 -1.75q-1.96875 -1.75 -2.25 -4.640625z" fill-rule="nonzero"/><path fill="#000000" d="m752.83624 605.6255l0 -3.203125l3.203125 0l0 3.203125l-3.203125 0z" fill-rule="nonzero"/><path fill="#000000" d="m752.83624 643.6255l0 -3.203125l3.203125 0l0 3.203125l-3.203125 0z" fill-rule="nonzero"/><path fill="#000000" fill-opacity="0.0" d="m190.85039 251.97375l529.5433 -1.2598419" fill-rule="evenodd"/><path stroke="#000000" stroke-width="1.0" stroke-linejoin="round" stroke-linecap="butt" d="m190.85039 251.97375l523.5433 -1.245575" fill-rule="evenodd"/><path fill="#000000" stroke="#000000" stroke-width="1.0" stroke-linecap="butt" d="m714.39764 252.37991l4.5341797 -1.6625214l-4.542053 -1.6409302z" fill-rule="evenodd"/><path fill="#000000" fill-opacity="0.0" d="m207.38321 335.02887l513.0078 0.03149414" fill-rule="evenodd"/><path stroke="#000000" stroke-width="1.0" stroke-linejoin="round" stroke-linecap="butt" d="m207.38321 335.02887l507.00784 0.03112793" fill-rule="evenodd"/><path fill="#000000" stroke="#000000" stroke-width="1.0" stroke-linecap="butt" d="m714.391 336.71173l4.538208 -1.6514587l-4.538025 -1.652008z" fill-rule="evenodd"/><path fill="#000000" fill-opacity="0.0" d="m205.10236 403.3832l517.22833 -59.24411" fill-rule="evenodd"/><path stroke="#000000" stroke-width="1.0" stroke-linejoin="round" stroke-linecap="butt" d="m205.10236 403.3832l511.26733 -58.56131" fill-rule="evenodd"/><path fill="#000000" stroke="#000000" stroke-width="1.0" stroke-linecap="butt" d="m716.5577 346.4629l4.3206177 -2.1574097l-4.696594 -1.1246033z" fill-rule="evenodd"/><path fill="#000000" fill-opacity="0.0" d="m193.71129 483.1286l526.6771 3.2756042" fill-rule="evenodd"/><path stroke="#000000" stroke-width="1.0" stroke-linejoin="round" stroke-linecap="butt" d="m193.71129 483.1286l520.67725 3.2382812" fill-rule="evenodd"/><path fill="#000000" stroke="#000000" stroke-width="1.0" stroke-linecap="butt" d="m714.3783 488.0186l4.548279 -1.6234741l-4.52771 -1.6799316z" fill-rule="evenodd"/><path fill="#000000" fill-opacity="0.0" d="m239.62204 557.0971l480.7559 2.2677002" fill-rule="evenodd"/><path stroke="#000000" stroke-width="1.0" stroke-linejoin="round" stroke-linecap="butt" d="m239.62204 557.0971l474.756 2.239441" fill-rule="evenodd"/><path fill="#000000" stroke="#000000" stroke-width="1.0" stroke-linecap="butt" d="m714.37024 560.9882l4.5458374 -1.63031l-4.5302734 -1.6730957z" fill-rule="evenodd"/><path fill="#000000" fill-opacity="0.0" d="m674.6273 70.732285l159.49603 0l0 60.283463l-159.49603 0z" fill-rule="evenodd"/><path fill="#000000" d="m739.5706 110.452286l0 -22.90625l3.03125 0l0 22.90625l-3.03125 0zm8.015625 0l0 -16.59375l2.53125 0l0 2.359375q1.828125 -2.734375 5.28125 -2.734375q1.5 0 2.75 0.546875q1.265625 0.53125 1.890625 1.40625q0.625 0.875 0.875 2.078125q0.15625 0.78125 0.15625 2.734375l0 10.203125l-2.8125 0l0 -10.09375q0 -1.71875 -0.328125 -2.5625q-0.328125 -0.859375 -1.171875 -1.359375q-0.828125 -0.515625 -1.953125 -0.515625q-1.796875 0 -3.109375 1.140625q-1.296875 1.140625 -1.296875 4.328125l0 9.0625l-2.8125 0zm23.9375 -2.515625l0.40625 2.484375q-1.1875 0.25 -2.125 0.25q-1.53125 0 -2.375 -0.484375q-0.84375 -0.484375 -1.1875 -1.265625q-0.34375 -0.796875 -0.34375 -3.328125l0 -9.546875l-2.0625 0l0 -2.1875l2.0625 0l0 -4.109375l2.796875 -1.6875l0 5.796875l2.828125 0l0 2.1875l-2.828125 0l0 9.703125q0 1.203125 0.140625 1.546875q0.15625 0.34375 0.484375 0.546875q0.34375 0.203125 0.96875 0.203125q0.46875 0 1.234375 -0.109375z" fill-rule="nonzero"/></g></svg>