<svg version="1.1" viewBox="0.0 0.0 960.0 720.0" fill="none" stroke="none" stroke-linecap="square" stroke-miterlimit="10" xmlns:xlink="http://www.w3.org/1999/xlink" xmlns="http://www.w3.org/2000/svg"><clipPath id="p.0"><path d="m0 0l960.0 0l0 720.0l-960.0 0l0 -720.0z" clip-rule="nonzero"/></clipPath><g clip-path="url(#p.0)"><path fill="#000000" fill-opacity="0.0" d="m0 0l960.0 0l0 720.0l-960.0 0z" fill-rule="evenodd"/><path fill="#ffffff" d="m82.16798 403.90552l0 0c0 -140.64563 56.10894 -254.66142 125.32284 -254.66142l0 0c33.237686 0 65.114044 26.830322 88.61664 74.58861c23.502563 47.75827 36.706207 112.53241 36.706207 180.07281l0 0c0 140.64563 -56.108948 254.66144 -125.322845 254.66144l0 0c-69.2139 0 -125.32284 -114.01581 -125.32284 -254.66144z" fill-rule="evenodd"/><path stroke="#000000" stroke-width="1.0" stroke-linejoin="round" stroke-linecap="butt" d="m82.16798 403.90552l0 0c0 -140.64563 56.10894 -254.66142 125.32284 -254.66142l0 0c33.237686 0 65.114044 26.830322 88.61664 74.58861c23.502563 47.75827 36.706207 112.53241 36.706207 180.07281l0 0c0 140.64563 -56.108948 254.66144 -125.322845 254.66144l0 0c-69.2139 0 -125.32284 -114.01581 -125.32284 -254.66144z" fill-rule="evenodd"/><path fill="#000000" d="m205.95175 187.62552l0 -3.203125l3.203125 0l0 3.203125l-3.203125 0z" fill-rule="nonzero"/><path fill="#000000" d="m205.95175 225.62552l0 -3.203125l3.203125 0l0 3.203125l-3.203125 0z" fill-rule="nonzero"/><path fill="#000000" d="m194.27988 256.75052l0 -2.828125l8.640625 0l0 2.828125l-8.640625 0zm21.5625 6.875l-2.8125 0l0 -17.921875q-1.015625 0.96875 -2.671875 1.9375q-1.640625 0.96875 -2.953125 1.453125l0 -2.71875q2.359375 -1.109375 4.125 -2.6875q1.765625 -1.578125 2.5 -3.0625l1.8125 0l0 23.0z" fill-rule="nonzero"/><path fill="#000000" d="m199.9205 328.32864q0 -4.0625 0.828125 -6.53125q0.84375 -2.484375 2.484375 -3.828125q1.65625 -1.34375 4.15625 -1.34375q1.84375 0 3.234375 0.75q1.390625 0.734375 2.296875 2.140625q0.90625 1.390625 1.421875 3.40625q0.515625 2.0 0.515625 5.40625q0 4.03125 -0.828125 6.515625q-0.828125 2.46875 -2.484375 3.828125q-1.640625 1.34375 -4.15625 1.34375q-3.3125 0 -5.203125 -2.375q-2.265625 -2.859375 -2.265625 -9.3125zm2.890625 0q0 5.640625 1.3125 7.515625q1.328125 1.859375 3.265625 1.859375q1.9375 0 3.25 -1.875q1.328125 -1.875 1.328125 -7.5q0 -5.65625 -1.328125 -7.515625q-1.3125 -1.859375 -3.28125 -1.859375q-1.9375 0 -3.09375 1.640625q-1.453125 2.09375 -1.453125 7.734375z" fill-rule="nonzero"/><path fill="#000000" d="m210.51425 415.62552l-2.8125 0l0 -17.921875q-1.015625 0.96875 -2.671875 1.9375q-1.640625 0.96875 -2.953125 1.453125l0 -2.71875q2.359375 -1.109375 4.125 -2.6875q1.765625 -1.578125 2.5 -3.0625l1.8125 0l0 23.0z" fill-rule="nonzero"/><path fill="#000000" d="m214.70175 488.9224l0 2.703125l-15.140625 0q-0.03125 -1.015625 0.328125 -1.953125q0.578125 -1.546875 1.84375 -3.046875q1.28125 -1.5 3.6875 -3.46875q3.734375 -3.0625 5.046875 -4.84375q1.3125 -1.796875 1.3125 -3.390625q0 -1.671875 -1.203125 -2.8125q-1.1875 -1.15625 -3.109375 -1.15625q-2.03125 0 -3.25 1.21875q-1.21875 1.21875 -1.234375 3.375l-2.890625 -0.296875q0.296875 -3.234375 2.234375 -4.921875q1.9375 -1.703125 5.203125 -1.703125q3.296875 0 5.21875 1.828125q1.921875 1.828125 1.921875 4.53125q0 1.375 -0.5625 2.703125q-0.5625 1.328125 -1.875 2.796875q-1.296875 1.46875 -4.328125 4.03125q-2.53125 2.125 -3.25 2.890625q-0.71875 0.75 -1.1875 1.515625l11.234375 0z" fill-rule="nonzero"/><path fill="#000000" d="m199.93613 561.5786l2.8125 -0.375q0.484375 2.390625 1.640625 3.453125q1.171875 1.046875 2.84375 1.046875q1.984375 0 3.34375 -1.375q1.375 -1.375 1.375 -3.40625q0 -1.9375 -1.265625 -3.1875q-1.265625 -1.265625 -3.21875 -1.265625q-0.796875 0 -1.984375 0.3125l0.3125 -2.46875q0.28125 0.03125 0.453125 0.03125q1.796875 0 3.234375 -0.9375q1.4375 -0.9375 1.4375 -2.890625q0 -1.546875 -1.046875 -2.5625q-1.046875 -1.015625 -2.703125 -1.015625q-1.640625 0 -2.734375 1.03125q-1.09375 1.03125 -1.40625 3.09375l-2.8125 -0.5q0.515625 -2.828125 2.34375 -4.375q1.828125 -1.5625 4.546875 -1.5625q1.875 0 3.453125 0.8125q1.578125 0.796875 2.40625 2.1875q0.84375 1.390625 0.84375 2.953125q0 1.484375 -0.796875 2.703125q-0.796875 1.21875 -2.359375 1.9375q2.03125 0.46875 3.15625 1.953125q1.125 1.46875 1.125 3.6875q0 3.0 -2.1875 5.09375q-2.1875 2.078125 -5.53125 2.078125q-3.015625 0 -5.015625 -1.796875q-1.984375 -1.796875 -2.265625 -4.65625z" fill-rule="nonzero"/><path fill="#000000" d="m205.95175 605.6255l0 -3.203125l3.203125 0l0 3.203125l-3.203125 0z" fill-rule="nonzero"/><path fill="#000000" d="m205.95175 643.6255l0 -3.203125l3.203125 0l0 3.203125l-3.203125 0z" fill-rule="nonzero"/><path fill="#000000" fill-opacity="0.0" d="m127.74278 70.732285l159.49605 0l0 60.283463l-159.49605 0z" fill-rule="evenodd"/><path fill="#000000" d="m215.24081 104.952286l0 5.125l-15.625 0l0 -4.375l7.875 -12.0l-7.5 0l0 -5.0l15.0 0l-0.125 3.375l-8.625 12.75l9.0 0.125zm-14.75 4.25l13.75 0l0 -3.5l-9.625 0l9.625 -14.0l0 -2.125l-13.375 0l0 3.25l8.25 0l-8.625 13.125l0 3.25z" fill-rule="nonzero"/><path fill="#ffffff" d="m629.0525 403.90552l0 0c0 -140.64563 56.108948 -254.66142 125.322815 -254.66142l0 0c33.237732 0 65.114075 26.830322 88.61664 74.58861c23.502625 47.75827 36.706238 112.53241 36.706238 180.07281l0 0c0 140.64563 -56.108948 254.66144 -125.322876 254.66144l0 0c-69.21387 0 -125.322815 -114.01581 -125.322815 -254.66144z" fill-rule="evenodd"/><path stroke="#000000" stroke-width="1.0" stroke-linejoin="round" stroke-linecap="butt" d="m629.0525 403.90552l0 0c0 -140.64563 56.108948 -254.66142 125.322815 -254.66142l0 0c33.237732 0 65.114075 26.830322 88.61664 74.58861c23.502625 47.75827 36.706238 112.53241 36.706238 180.07281l0 0c0 140.64563 -56.108948 254.66144 -125.322876 254.66144l0 0c-69.21387 0 -125.322815 -114.01581 -125.322815 -254.66144z" fill-rule="evenodd"/><path fill="#000000" d="m752.83624 187.62552l0 -3.203125l3.203125 0l0 3.203125l-3.203125 0z" fill-rule="nonzero"/><path fill="#000000" d="m752.83624 225.62552l0 -3.203125l3.203125 0l0 3.203125l-3.203125 0z" fill-rule="nonzero"/><path fill="#000000" d="m746.805 252.32864q0 -4.0625 0.828125 -6.53125q0.84375 -2.484375 2.484375 -3.828125q1.65625 -1.34375 4.15625 -1.34375q1.84375 0 3.234375 0.75q1.390625 0.734375 2.296875 2.140625q0.90625 1.390625 1.421875 3.40625q0.515625 2.0 0.515625 5.40625q0 4.03125 -0.828125 6.515625q-0.828125 2.46875 -2.484375 3.828125q-1.640625 1.34375 -4.15625 1.34375q-3.3125 0 -5.203125 -2.375q-2.265625 -2.859375 -2.265625 -9.3125zm2.890625 0q0 5.640625 1.3125 7.515625q1.328125 1.859375 3.265625 1.859375q1.9375 0 3.25 -1.875q1.328125 -1.875 1.328125 -7.5q0 -5.65625 -1.328125 -7.515625q-1.3125 -1.859375 -3.28125 -1.859375q-1.9375 0 -3.09375 1.640625q-1.453125 2.09375 -1.453125 7.734375z" fill-rule="nonzero"/><path fill="#000000" d="m757.39874 339.62552l-2.8125 0l0 -17.921875q-1.015625 0.96875 -2.671875 1.9375q-1.640625 0.96875 -2.953125 1.453125l0 -2.71875q2.359375 -1.109375 4.125 -2.6875q1.765625 -1.578125 2.5 -3.0625l1.8125 0l0 23.0z" fill-rule="nonzero"/><path fill="#000000" d="m761.58624 412.9224l0 2.703125l-15.140625 0q-0.03125 -1.015625 0.328125 -1.953125q0.578125 -1.546875 1.84375 -3.046875q1.28125 -1.5 3.6875 -3.46875q3.734375 -3.0625 5.046875 -4.84375q1.3125 -1.796875 1.3125 -3.390625q0 -1.671875 -1.203125 -2.8125q-1.1875 -1.15625 -3.109375 -1.15625q-2.03125 0 -3.25 1.21875q-1.21875 1.21875 -1.234375 3.375l-2.890625 -0.296875q0.296875 -3.234375 2.234375 -4.921875q1.9375 -1.703125 5.203125 -1.703125q3.296875 0 5.21875 1.828125q1.921875 1.828125 1.921875 4.53125q0 1.375 -0.5625 2.703125q-0.5625 1.328125 -1.875 2.796875q-1.296875 1.46875 -4.328125 4.03125q-2.53125 2.125 -3.25 2.890625q-0.71875 0.75 -1.1875 1.515625l11.234375 0z" fill-rule="nonzero"/><path fill="#000000" d="m746.8206 485.57864l2.8125 -0.375q0.484375 2.390625 1.640625 3.453125q1.171875 1.046875 2.84375 1.046875q1.984375 0 3.34375 -1.375q1.375 -1.375 1.375 -3.40625q0 -1.9375 -1.265625 -3.1875q-1.265625 -1.265625 -3.21875 -1.265625q-0.796875 0 -1.984375 0.3125l0.3125 -2.46875q0.28125 0.03125 0.453125 0.03125q1.796875 0 3.234375 -0.9375q1.4375 -0.9375 1.4375 -2.890625q0 -1.546875 -1.046875 -2.5625q-1.046875 -1.015625 -2.703125 -1.015625q-1.640625 0 -2.734375 1.03125q-1.09375 1.03125 -1.40625 3.09375l-2.8125 -0.5q0.515625 -2.828125 2.34375 -4.375q1.828125 -1.5625 4.546875 -1.5625q1.875 0 3.453125 0.8125q1.578125 0.796875 2.40625 2.1875q0.84375 1.390625 0.84375 2.953125q0 1.484375 -0.796875 2.703125q-0.796875 1.21875 -2.359375 1.9375q2.03125 0.46875 3.15625 1.953125q1.125 1.46875 1.125 3.6875q0 3.0 -2.1875 5.09375q-2.1875 2.078125 -5.53125 2.078125q-3.015625 0 -5.015625 -1.796875q-1.984375 -1.796875 -2.265625 -4.65625z" fill-rule="nonzero"/><path fill="#000000" d="m755.8206 567.6255l0 -5.484375l-9.9375 0l0 -2.578125l10.453125 -14.84375l2.296875 0l0 14.84375l3.09375 0l0 2.578125l-3.09375 0l0 5.484375l-2.8125 0zm0 -8.0625l0 -10.328125l-7.171875 10.328125l7.171875 0z" fill-rule="nonzero"/><path fill="#000000" d="m752.83624 605.6255l0 -3.203125l3.203125 0l0 3.203125l-3.203125 0z" fill-rule="nonzero"/><path fill="#000000" d="m752.83624 643.6255l0 -3.203125l3.203125 0l0 3.203125l-3.203125 0z" fill-rule="nonzero"/><path fill="#000000" fill-opacity="0.0" d="m239.62204 248.4462l480.7559 2.2677155" fill-rule="evenodd"/><path stroke="#000000" stroke-width="1.0" stroke-linejoin="round" stroke-linecap="butt" d="m239.62204 248.4462l474.756 2.2394104" fill-rule="evenodd"/><path fill="#000000" stroke="#000000" stroke-width="1.0" stroke-linecap="butt" d="m714.37024 252.33733l4.5458374 -1.63031l-4.5302734 -1.6731262z" fill-rule="evenodd"/><path fill="#000000" fill-opacity="0.0" d="m239.62204 332.80054l480.7559 2.2677002" fill-rule="evenodd"/><path stroke="#000000" stroke-width="1.0" stroke-linejoin="round" stroke-linecap="butt" d="m239.62204 332.80054l474.756 2.2394104" fill-rule="evenodd"/><path fill="#000000" stroke="#000000" stroke-width="1.0" stroke-linecap="butt" d="m714.37024 336.69165l4.5458374 -1.63031l-4.5302734 -1.6731262z" fill-rule="evenodd"/><path fill="#000000" fill-opacity="0.0" d="m239.62204 402.77167l480.7559 2.2677002" fill-rule="evenodd"/><path stroke="#000000" stroke-width="1.0" stroke-linejoin="round" stroke-linecap="butt" d="m239.62204 402.77167l474.756 2.2394104" fill-rule="evenodd"/><path fill="#000000" stroke="#000000" stroke-width="1.0" stroke-linecap="butt" d="m714.37024 406.66278l4.5458374 -1.63031l-4.5302734 -1.6731262z" fill-rule="evenodd"/><path fill="#000000" fill-opacity="0.0" d="m239.62204 484.13385l480.7559 2.2677307" fill-rule="evenodd"/><path stroke="#000000" stroke-width="1.0" stroke-linejoin="round" stroke-linecap="butt" d="m239.62204 484.13385l474.756 2.239441" fill-rule="evenodd"/><path fill="#000000" stroke="#000000" stroke-width="1.0" stroke-linecap="butt" d="m714.37024 488.025l4.5458374 -1.63031l-4.5302734 -1.6731262z" fill-rule="evenodd"/><path fill="#000000" fill-opacity="0.0" d="m239.62204 557.0971l480.7559 2.2677002" fill-rule="evenodd"/><path stroke="#000000" stroke-width="1.0" stroke-linejoin="round" stroke-linecap="butt" d="m239.62204 557.0971l474.756 2.239441" fill-rule="evenodd"/><path fill="#000000" stroke="#000000" stroke-width="1.0" stroke-linecap="butt" d="m714.37024 560.9882l4.5458374 -1.63031l-4.5302734 -1.6730957z" fill-rule="evenodd"/><path fill="#000000" fill-opacity="0.0" d="m674.6273 70.732285l159.49603 0l0 60.283463l-159.49603 0z" fill-rule="evenodd"/><path fill="#000000" d="m762.1253 104.952286l0 5.125l-15.625 0l0 -4.375l7.875 -12.0l-7.5 0l0 -5.0l15.0 0l-0.125 3.375l-8.625 12.75l9.0 0.125zm-14.75 4.25l13.75 0l0 -3.5l-9.625 0l9.625 -14.0l0 -2.125l-13.375 0l0 3.25l8.25 0l-8.625 13.125l0 3.25z" fill-rule="nonzero"/></g></svg>