<?xml version="1.0" encoding="UTF-8" standalone="no"?><!-- Generator: Gravit.io --><svg xmlns="http://www.w3.org/2000/svg" xmlns:xlink="http://www.w3.org/1999/xlink" style="isolation:isolate" viewBox="0 0 24 24" width="24pt" height="24pt"><defs><clipPath id="_clipPath_nb6nau3FmZlkFb0nzp1v2Rjbx6DzRqib"><rect width="24" height="24"/></clipPath></defs><g clip-path="url(#_clipPath_nb6nau3FmZlkFb0nzp1v2Rjbx6DzRqib)"><g><g><g><path d=" M 20 2 L 4 2 C 2.9 2 2 2.9 2 4 L 2 20 C 2 21.1 2.9 22 4 22 L 20 22 C 21.1 22 22 21.1 22 20 L 22 4 C 22 2.9 21.1 2 20 2 Z  M 8 19 L 5 19 L 5 10 L 8 10 L 8 19 Z  M 6.5 8.3 C 5.5 8.3 4.7 7.5 4.7 6.5 C 4.7 5.5 5.5 4.7 6.5 4.7 C 7.5 4.7 8.3 5.5 8.3 6.5 C 8.3 7.5 7.5 8.3 6.5 8.3 Z  M 19 19 L 16 19 L 16 13.7 C 16 12.9 15.3 12.2 14.5 12.2 C 13.7 12.2 13 12.9 13 13.7 L 13 19 L 10 19 L 10 10 L 13 10 L 13 11.2 C 13.5 10.4 14.6 9.8 15.5 9.8 C 17.4 9.8 19 11.4 19 13.3 L 19 19 Z " fill="rgb(0,0,0)"/><linearGradient id="_lgradient_0" x1="0.8371212360354527" y1="0.7257684835894298" x2="-0.21773109383271194" y2="-0.1897044375434569" gradientTransform="matrix(20,0,0,20,2,2)" gradientUnits="userSpaceOnUse"><stop offset="0%" stop-opacity="1" style="stop-color:rgb(151,60,243)"/><stop offset="98.75%" stop-opacity="1" style="stop-color:rgb(243,60,217)"/></linearGradient><path d=" M 20 2 L 4 2 C 2.9 2 2 2.9 2 4 L 2 20 C 2 21.1 2.9 22 4 22 L 20 22 C 21.1 22 22 21.1 22 20 L 22 4 C 22 2.9 21.1 2 20 2 Z  M 8 19 L 5 19 L 5 10 L 8 10 L 8 19 Z  M 6.5 8.3 C 5.5 8.3 4.7 7.5 4.7 6.5 C 4.7 5.5 5.5 4.7 6.5 4.7 C 7.5 4.7 8.3 5.5 8.3 6.5 C 8.3 7.5 7.5 8.3 6.5 8.3 Z  M 19 19 L 16 19 L 16 13.7 C 16 12.9 15.3 12.2 14.5 12.2 C 13.7 12.2 13 12.9 13 13.7 L 13 19 L 10 19 L 10 10 L 13 10 L 13 11.2 C 13.5 10.4 14.6 9.8 15.5 9.8 C 17.4 9.8 19 11.4 19 13.3 L 19 19 Z " fill="url(#_lgradient_0)"/></g></g></g></g></svg>