<svg version="1.1" viewBox="0.0 0.0 960.0 720.0" fill="none" stroke="none" stroke-linecap="square" stroke-miterlimit="10" xmlns:xlink="http://www.w3.org/1999/xlink" xmlns="http://www.w3.org/2000/svg"><clipPath id="p.0"><path d="m0 0l960.0 0l0 720.0l-960.0 0l0 -720.0z" clip-rule="nonzero"/></clipPath><g clip-path="url(#p.0)"><path fill="#000000" fill-opacity="0.0" d="m0 0l960.0 0l0 720.0l-960.0 0z" fill-rule="evenodd"/><path fill="#ffffff" d="m200.5433 201.7454l0 0c0 -29.571152 24.994507 -53.543304 55.826782 -53.543304l0 0c14.806183 0 29.00592 5.641144 39.475494 15.682465c10.469543 10.041321 16.351257 23.660278 16.351257 37.86084l0 0c0 29.571152 -24.994476 53.543304 -55.82675 53.543304l0 0c-30.832275 0 -55.826782 -23.972153 -55.826782 -53.543304z" fill-rule="evenodd"/><path stroke="#000000" stroke-width="1.0" stroke-linejoin="round" stroke-linecap="butt" d="m200.5433 201.7454l0 0c0 -29.571152 24.994507 -53.543304 55.826782 -53.543304l0 0c14.806183 0 29.00592 5.641144 39.475494 15.682465c10.469543 10.041321 16.351257 23.660278 16.351257 37.86084l0 0c0 29.571152 -24.994476 53.543304 -55.82675 53.543304l0 0c-30.832275 0 -55.826782 -23.972153 -55.826782 -53.543304z" fill-rule="evenodd"/><path fill="#000000" d="m251.96347 205.1654l1.71875 -0.140625q0.1875 1.25 0.875 1.890625q0.703125 0.625 1.6875 0.625q1.1875 0 2.0 -0.890625q0.828125 -0.890625 0.828125 -2.359375q0 -1.40625 -0.796875 -2.21875q-0.78125 -0.8125 -2.0625 -0.8125q-0.78125 0 -1.421875 0.359375q-0.640625 0.359375 -1.0 0.9375l-1.546875 -0.203125l1.296875 -6.859375l6.640625 0l0 1.5625l-5.328125 0l-0.71875 3.59375q1.203125 -0.84375 2.515625 -0.84375q1.75 0 2.953125 1.21875q1.203125 1.203125 1.203125 3.109375q0 1.8125 -1.046875 3.140625q-1.296875 1.625 -3.515625 1.625q-1.8125 0 -2.96875 -1.015625q-1.15625 -1.03125 -1.3125 -2.71875z" fill-rule="nonzero"/><path fill="#ffffff" d="m231.60892 271.23358l0 0c0 -32.71959 29.28833 -59.24408 65.41733 -59.24408l0 0c36.128998 0 65.41733 26.52449 65.41733 59.24408l0 0c0 32.719635 -29.28833 59.24411 -65.41733 59.24411l0 0c-36.128998 0 -65.41733 -26.524475 -65.41733 -59.24411z" fill-rule="evenodd"/><path stroke="#000000" stroke-width="1.0" stroke-linejoin="round" stroke-linecap="butt" d="m231.60892 271.23358l0 0c0 -32.71959 29.28833 -59.24408 65.41733 -59.24408l0 0c36.128998 0 65.41733 26.52449 65.41733 59.24408l0 0c0 32.719635 -29.28833 59.24411 -65.41733 59.24411l0 0c-36.128998 0 -65.41733 -26.524475 -65.41733 -59.24411z" fill-rule="evenodd"/><path fill="#000000" d="m297.86963 278.1536l0 -3.203125l-5.796875 0l0 -1.5l6.09375 -8.65625l1.34375 0l0 8.65625l1.796875 0l0 1.5l-1.796875 0l0 3.203125l-1.640625 0zm0 -4.703125l0 -6.015625l-4.1875 6.015625l4.1875 0z" fill-rule="nonzero"/><path fill="#ffffff" d="m289.53018 322.48557l0 0c0 -37.111786 33.63858 -67.19685 75.13385 -67.19685l0 0c41.4953 0 75.13388 30.085068 75.13388 67.19685l0 0c0 37.111786 -33.63858 67.19684 -75.13388 67.19684l0 0c-41.49527 0 -75.13385 -30.085052 -75.13385 -67.19684z" fill-rule="evenodd"/><path stroke="#000000" stroke-width="1.0" stroke-linejoin="round" stroke-linecap="butt" d="m289.53018 322.48557l0 0c0 -37.111786 33.63858 -67.19685 75.13385 -67.19685l0 0c41.4953 0 75.13388 30.085068 75.13388 67.19685l0 0c0 37.111786 -33.63858 67.19684 -75.13388 67.19684l0 0c-41.49527 0 -75.13385 -30.085052 -75.13385 -67.19684z" fill-rule="evenodd"/><path fill="#000000" d="m360.25742 325.87433l1.640625 -0.21875q0.28125 1.40625 0.953125 2.015625q0.6875 0.609375 1.65625 0.609375q1.15625 0 1.953125 -0.796875q0.796875 -0.796875 0.796875 -1.984375q0 -1.125 -0.734375 -1.859375q-0.734375 -0.734375 -1.875 -0.734375q-0.46875 0 -1.15625 0.171875l0.1875 -1.4375q0.15625 0.015625 0.265625 0.015625q1.046875 0 1.875 -0.546875q0.84375 -0.546875 0.84375 -1.671875q0 -0.90625 -0.609375 -1.5q-0.609375 -0.59375 -1.578125 -0.59375q-0.953125 0 -1.59375 0.609375q-0.640625 0.59375 -0.8125 1.796875l-1.640625 -0.296875q0.296875 -1.640625 1.359375 -2.546875q1.0625 -0.90625 2.65625 -0.90625q1.09375 0 2.0 0.46875q0.921875 0.46875 1.40625 1.28125q0.5 0.8125 0.5 1.71875q0 0.859375 -0.46875 1.578125q-0.46875 0.703125 -1.375 1.125q1.1875 0.28125 1.84375 1.140625q0.65625 0.859375 0.65625 2.15625q0 1.734375 -1.28125 2.953125q-1.265625 1.21875 -3.21875 1.21875q-1.765625 0 -2.921875 -1.046875q-1.15625 -1.046875 -1.328125 -2.71875z" fill-rule="nonzero"/><path fill="#ffffff" d="m362.4435 355.40158l0 0c0 -44.017548 35.739655 -79.700806 79.82678 -79.700806l0 0c21.171356 0 41.475616 8.397034 56.446045 23.343842c14.970428 14.946777 23.380707 35.218994 23.380707 56.356964l0 0c0 44.017517 -35.739655 79.700775 -79.82675 79.700775l0 0c-44.087128 0 -79.82678 -35.683258 -79.82678 -79.700775z" fill-rule="evenodd"/><path stroke="#000000" stroke-width="1.0" stroke-linejoin="round" stroke-linecap="butt" d="m362.4435 355.40158l0 0c0 -44.017548 35.739655 -79.700806 79.82678 -79.700806l0 0c21.171356 0 41.475616 8.397034 56.446045 23.343842c14.970428 14.946777 23.380707 35.218994 23.380707 56.356964l0 0c0 44.017517 -35.739655 79.700775 -79.82675 79.700775l0 0c-44.087128 0 -79.82678 -35.683258 -79.82678 -79.700775z" fill-rule="evenodd"/><path fill="#000000" d="m446.47305 360.74344l0 1.578125l-8.828125 0q-0.015625 -0.59375 0.1875 -1.140625q0.34375 -0.90625 1.078125 -1.78125q0.75 -0.875 2.15625 -2.015625q2.171875 -1.78125 2.9375 -2.828125q0.765625 -1.046875 0.765625 -1.96875q0 -0.984375 -0.703125 -1.640625q-0.6875 -0.671875 -1.8125 -0.671875q-1.1875 0 -1.90625 0.71875q-0.703125 0.703125 -0.703125 1.953125l-1.6875 -0.171875q0.171875 -1.890625 1.296875 -2.875q1.140625 -0.984375 3.03125 -0.984375q1.921875 0 3.046875 1.0625q1.125 1.0625 1.125 2.640625q0 0.796875 -0.328125 1.578125q-0.328125 0.78125 -1.09375 1.640625q-0.75 0.84375 -2.53125 2.34375q-1.46875 1.234375 -1.890625 1.6875q-0.421875 0.4375 -0.6875 0.875l6.546875 0z" fill-rule="nonzero"/><path fill="#ffffff" d="m480.0 378.28348l0 0c0 -56.654846 45.34967 -102.5827 101.29132 -102.5827l0 0c26.864136 0 52.62799 10.8078 71.62384 30.045776c18.995789 19.237976 29.667542 45.33029 29.667542 72.53693l0 0c0 56.654846 -45.34973 102.58267 -101.29138 102.58267l0 0c-55.94165 0 -101.29132 -45.927826 -101.29132 -102.58267z" fill-rule="evenodd"/><path stroke="#000000" stroke-width="1.0" stroke-linejoin="round" stroke-linecap="butt" d="m480.0 378.28348l0 0c0 -56.654846 45.34967 -102.5827 101.29132 -102.5827l0 0c26.864136 0 52.62799 10.8078 71.62384 30.045776c18.995789 19.237976 29.667542 45.33029 29.667542 72.53693l0 0c0 56.654846 -45.34973 102.58267 -101.29138 102.58267l0 0c-55.94165 0 -101.29132 -45.927826 -101.29132 -102.58267z" fill-rule="evenodd"/><path fill="#000000" d="m583.0566 385.20346l-1.640625 0l0 -10.453125q-0.59375 0.5625 -1.5625 1.140625q-0.953125 0.5625 -1.71875 0.84375l0 -1.59375q1.375 -0.640625 2.40625 -1.5625q1.03125 -0.921875 1.453125 -1.78125l1.0625 0l0 13.40625z" fill-rule="nonzero"/><path fill="#000000" fill-opacity="0.0" d="m504.9623 289.19485l0 0c9.462738 -15.081299 16.115448 -27.9469 14.859161 -28.736145l-230.37976 -144.73245l0 0c-0.6032715 -0.37900543 -2.98703 2.1344986 -6.626831 6.9875717c-3.639801 4.853073 -8.237518 11.648186 -12.781708 18.890465z" fill-rule="evenodd"/><path fill="#000000" fill-opacity="0.0" d="m504.9623 289.19485l0 0c9.462738 -15.081299 16.115448 -27.9469 14.859161 -28.736145l-230.37976 -144.73245l0 0c-0.6032715 -0.37900543 -2.98703 2.1344986 -6.626831 6.9875717c-3.639801 4.853073 -8.237518 11.648186 -12.781708 18.890465" fill-rule="evenodd"/><path stroke="#000000" stroke-width="1.0" stroke-linejoin="round" stroke-linecap="butt" d="m504.9623 289.19485l0 0c9.462738 -15.081299 16.115448 -27.9469 14.859161 -28.736145l-230.37976 -144.73245l0 0c-0.6032715 -0.37900543 -2.98703 2.1344986 -6.626831 6.9875717c-3.639801 4.853073 -8.237518 11.648186 -12.781708 18.890465" fill-rule="evenodd"/><path fill="#000000" fill-opacity="0.0" d="m396.37067 135.78363l69.700775 28.15747l-17.070862 42.267715l-69.700806 -28.15747z" fill-rule="evenodd"/><path fill="#000000" d="m398.48294 171.1926l5.675812 -14.053375l-5.2444763 -2.118637l0.76068115 -1.8834381l12.633087 5.10347l-0.76068115 1.8834381l-5.2734375 -2.1303406l-5.675812 14.05336l-2.1151733 -0.8544769zm14.930542 4.3801117q-1.4552002 0.47380066 -2.6272888 0.45529175q-1.1517944 -0.027145386 -2.2962952 -0.48950195q-1.8978577 -0.7666931 -2.552002 -2.1094513q-0.6396179 -1.3369141 -0.054504395 -2.7857208q0.34524536 -0.85479736 1.0027771 -1.3980408q0.6720276 -0.53741455 1.4646912 -0.7059021q0.79849243 -0.1829834 1.6685791 -0.08425903q0.638031 0.0892334 1.8555298 0.41255188q2.492981 0.67007446 3.76651 0.7295532q0.17245483 -0.3853302 0.2192688 -0.50123596q0.47982788 -1.1880188 0.11376953 -1.9088593q-0.46972656 -0.9649353 -1.9474487 -1.5619049q-1.3907776 -0.5618439 -2.2416687 -0.33262634q-0.84503174 0.21473694 -1.6611328 1.3174744l-1.8070068 -1.0333405q0.7581177 -1.1261292 1.6563721 -1.6395416q0.8982544 -0.51342773 2.1921387 -0.46258545q1.2997131 0.036346436 2.7919312 0.6391754q1.4777222 0.59695435 2.2644653 1.3192444q0.7867737 0.7222748 1.0049133 1.4339142q0.2239685 0.69714355 0.07015991 1.5787048q-0.11203003 0.52770996 -0.63864136 1.8316193l-1.0532532 2.6078491q-1.1000671 2.7237396 -1.2622375 3.500824q-0.16217041 0.7770691 -0.06915283 1.5898285l-2.0427246 -0.8252106q-0.058502197 -0.73139954 0.18225098 -1.5778503zm1.6077576 -4.4397583q-1.2476196 0.0015411377 -3.5001526 -0.5545349q-1.2726746 -0.31192017 -1.8675232 -0.29943848q-0.5803528 0.018341064 -1.0252991 0.32728577q-0.43045044 0.31480408 -0.6352539 0.82188416q-0.315979 0.7823639 0.052886963 1.5380249q0.3833313 0.76153564 1.527832 1.2238922q1.1300354 0.4564972 2.2127075 0.3209076q1.0827026 -0.13557434 1.8335571 -0.8264923q0.5878906 -0.5376892 1.1086731 -1.8271332l0.29257202 -0.72439575zm8.199432 -5.855011l0.91278076 -2.2601318l1.9558411 0.7901001l-0.9128113 2.2601318l-1.9558105 -0.7901001zm-5.5236816 13.6766815l4.663513 -11.546936l1.9558105 0.7901001l-4.663513 11.546936l-1.9558105 -0.7901001zm4.885895 1.9737854l6.436493 -15.936798l1.9558105 0.7901001l-6.4364624 15.936813l-1.9558411 -0.79011536z" fill-rule="nonzero"/><path fill="#000000" fill-opacity="0.0" d="m652.91516 450.82037l73.9527 48.251953" fill-rule="evenodd"/><path stroke="#000000" stroke-width="1.0" stroke-linejoin="round" stroke-linecap="butt" d="m652.91516 450.82037l73.9527 48.251953" fill-rule="evenodd"/><path fill="#000000" fill-opacity="0.0" d="m691.6983 499.0735l86.77167 0l0 45.57483l-86.77167 0z" fill-rule="evenodd"/><path fill="#000000" d="m702.6202 531.11346l0 -17.1875l2.28125 0l0 7.0625l8.921875 0l0 -7.0625l2.28125 0l0 17.1875l-2.28125 0l0 -8.09375l-8.921875 0l0 8.09375l-2.28125 0zm25.519531 -4.015625l2.171875 0.28125q-0.515625 1.90625 -1.90625 2.96875q-1.390625 1.046875 -3.5625 1.046875q-2.734375 0 -4.34375 -1.671875q-1.59375 -1.6875 -1.59375 -4.734375q0 -3.140625 1.609375 -4.875q1.625 -1.734375 4.203125 -1.734375q2.5 0 4.078125 1.703125q1.59375 1.703125 1.59375 4.78125q0 0.1875 -0.015625 0.5625l-9.28125 0q0.109375 2.046875 1.15625 3.140625q1.046875 1.09375 2.609375 1.09375q1.15625 0 1.96875 -0.609375q0.828125 -0.609375 1.3125 -1.953125zm-6.9375 -3.40625l6.953125 0q-0.140625 -1.5625 -0.796875 -2.359375q-1.0 -1.21875 -2.609375 -1.21875q-1.453125 0 -2.453125 0.984375q-0.984375 0.96875 -1.09375 2.59375zm19.878906 5.890625q-1.171875 0.984375 -2.265625 1.40625q-1.078125 0.40625 -2.3125 0.40625q-2.046875 0 -3.15625 -1.0q-1.09375 -1.0 -1.09375 -2.5625q0 -0.921875 0.40625 -1.671875q0.421875 -0.75 1.09375 -1.203125q0.671875 -0.46875 1.515625 -0.703125q0.625 -0.15625 1.875 -0.3125q2.5625 -0.3125 3.765625 -0.734375q0.015625 -0.421875 0.015625 -0.546875q0 -1.28125 -0.609375 -1.8125q-0.796875 -0.71875 -2.390625 -0.71875q-1.5 0 -2.203125 0.53125q-0.703125 0.515625 -1.046875 1.84375l-2.0625 -0.28125q0.28125 -1.328125 0.921875 -2.140625q0.640625 -0.8125 1.859375 -1.25q1.21875 -0.453125 2.828125 -0.453125q1.59375 0 2.59375 0.375q1.0 0.375 1.46875 0.953125q0.46875 0.5625 0.65625 1.4375q0.09375 0.53125 0.09375 1.9375l0 2.8125q0 2.9375 0.140625 3.71875q0.140625 0.78125 0.53125 1.5l-2.203125 0q-0.328125 -0.65625 -0.421875 -1.53125zm-0.171875 -4.71875q-1.15625 0.46875 -3.453125 0.796875q-1.296875 0.1875 -1.84375 0.421875q-0.53125 0.234375 -0.828125 0.6875q-0.28125 0.453125 -0.28125 1.0q0 0.84375 0.625 1.40625q0.640625 0.5625 1.875 0.5625q1.21875 0 2.171875 -0.53125q0.953125 -0.53125 1.390625 -1.453125q0.34375 -0.71875 0.34375 -2.109375l0 -0.78125zm13.472656 6.25l0 -1.578125q-1.1875 1.859375 -3.484375 1.859375q-1.484375 0 -2.734375 -0.8125q-1.25 -0.828125 -1.9375 -2.296875q-0.671875 -1.46875 -0.671875 -3.390625q0 -1.859375 0.609375 -3.375q0.625 -1.515625 1.859375 -2.328125q1.25 -0.8125 2.78125 -0.8125q1.125 0 2.0 0.484375q0.890625 0.46875 1.4375 1.234375l0 -6.171875l2.09375 0l0 17.1875l-1.953125 0zm-6.671875 -6.21875q0 2.390625 1.0 3.578125q1.015625 1.1875 2.390625 1.1875q1.390625 0 2.34375 -1.125q0.96875 -1.140625 0.96875 -3.453125q0 -2.5625 -0.984375 -3.75q-0.984375 -1.203125 -2.421875 -1.203125q-1.40625 0 -2.359375 1.15625q-0.9375 1.140625 -0.9375 3.609375z" fill-rule="nonzero"/></g></svg>