<?xml version="1.0" encoding="UTF-8" standalone="no"?><!-- Generator: Gravit.io --><svg xmlns="http://www.w3.org/2000/svg" xmlns:xlink="http://www.w3.org/1999/xlink" style="isolation:isolate" viewBox="0 0 500 500" width="500pt" height="500pt"><defs><clipPath id="_clipPath_jLRt4qSb0vhPYbDwN2PiqTx0qH62TYJT"><rect width="500" height="500"/></clipPath></defs><g clip-path="url(#_clipPath_jLRt4qSb0vhPYbDwN2PiqTx0qH62TYJT)"><g><g><linearGradient id="_lgradient_0" x1="0.05331969528144859" y1="0.04195804827343111" x2="0.9251185219016675" y2="0.9265734328888158" gradientTransform="matrix(311.999,0,0,312,94.001,94)" gradientUnits="userSpaceOnUse"><stop offset="0%" stop-opacity="1" style="stop-color:rgb(243,60,217)"/><stop offset="100%" stop-opacity="1" style="stop-color:rgb(151,60,243)"/></linearGradient><path d=" M 191.778 377.892 L 191.778 174.659 L 164.434 174.659 C 164.202 174.659 163.979 174.651 163.764 174.635 L 163.764 174.635 L 122.109 174.635 L 122.109 377.892 L 191.778 377.892 Z  M 164.434 406 L 164.434 406 L 258.338 406 L 258.338 406 L 258.338 406 L 398.972 406 C 402.854 406 405.999 402.855 405.999 398.973 L 405.999 101.027 C 405.999 97.146 402.854 94 398.972 94 L 101.028 94 C 97.147 94 94.001 97.146 94.001 101.027 L 94.001 122.108 L 122.109 122.108 L 130.19 122.108 L 377.891 122.108 L 377.891 377.892 L 223.079 377.892 L 223.079 308.499 L 271.29 308.499 C 300.072 308.499 322.379 301.663 338.21 287.991 C 354.04 274.079 361.955 254.651 361.955 229.706 C 361.955 204.521 353.8 184.613 337.49 169.982 C 321.42 155.111 300.672 147.675 275.247 147.675 L 232.433 147.675 L 232.433 147.581 L 103.136 147.581 L 103.136 147.581 L 94.001 147.581 L 94.001 398.973 C 94.001 402.855 97.147 406 101.028 406 L 164.434 406 Z  M 223.079 282.954 L 269.851 282.954 C 310.146 282.954 330.294 265.205 330.294 229.706 C 330.294 211.237 324.538 197.445 313.025 188.331 C 301.751 179.216 287.48 174.659 270.21 174.659 L 223.079 174.659 L 223.079 282.954 L 223.079 282.954 L 223.079 282.954 Z " fill-rule="evenodd" fill="url(#_lgradient_0)"/></g></g></g></svg>