<?xml version="1.0" encoding="UTF-8" standalone="no"?><!-- Generator: Gravit.io --><svg xmlns="http://www.w3.org/2000/svg" xmlns:xlink="http://www.w3.org/1999/xlink" style="isolation:isolate" viewBox="0 0 24 24" width="24pt" height="24pt"><defs><clipPath id="_clipPath_Nmqn8PE20cuyGKcFShpNg5M9IScK1uid"><rect width="24" height="24"/></clipPath></defs><g clip-path="url(#_clipPath_Nmqn8PE20cuyGKcFShpNg5M9IScK1uid)"><clipPath id="_clipPath_3Rf6azuJSBsPsrPaFqQYIBzcn3LV35MO"><rect x="0" y="0" width="24" height="24" transform="matrix(1,0,0,1,0,0)" fill="rgb(255,255,255)"/></clipPath><g clip-path="url(#_clipPath_3Rf6azuJSBsPsrPaFqQYIBzcn3LV35MO)"><g><g><linearGradient id="_lgradient_3" x1="0.8371212360354527" y1="0.7257684835894298" x2="-0.21773109383271194" y2="-0.1897044375434569" gradientTransform="matrix(24,0,0,24,0,0)" gradientUnits="userSpaceOnUse"><stop offset="0%" stop-opacity="1" style="stop-color:rgb(151,60,243)"/><stop offset="98.75%" stop-opacity="1" style="stop-color:rgb(243,60,217)"/></linearGradient><path d=" M 0 12 C 0 5.377 5.377 0 12 0 C 18.623 0 24 5.377 24 12 C 24 18.623 18.623 24 12 24 C 5.377 24 0 18.623 0 12 Z  M 8.005 13.246 C 8.005 12.558 8.563 12 9.251 12 C 9.938 12 10.496 12.558 10.496 13.246 C 10.496 13.933 9.938 14.492 9.251 14.492 C 8.563 14.506 8.005 13.933 8.005 13.246 L 8.005 13.246 Z  M 14.979 16.554 C 14.119 17.413 12.487 17.47 12.014 17.47 C 11.527 17.47 9.895 17.399 9.05 16.554 C 8.921 16.425 8.921 16.224 9.05 16.095 C 9.179 15.967 9.379 15.967 9.508 16.095 C 10.053 16.64 11.198 16.826 12.014 16.826 C 12.831 16.826 13.99 16.64 14.52 16.095 C 14.649 15.967 14.85 15.967 14.979 16.095 C 15.093 16.224 15.093 16.425 14.979 16.554 L 14.979 16.554 Z  M 14.749 14.506 C 14.062 14.506 13.504 13.947 13.504 13.26 C 13.504 12.573 14.062 12.014 14.749 12.014 C 15.437 12.014 15.995 12.573 15.995 13.26 C 15.995 13.933 15.437 14.506 14.749 14.506 L 14.749 14.506 Z  M 20.005 12 C 20.005 11.026 19.217 10.253 18.258 10.253 C 17.785 10.253 17.356 10.439 17.041 10.74 C 15.838 9.881 14.191 9.322 12.358 9.251 L 13.16 5.499 L 15.766 6.057 C 15.795 6.716 16.339 7.246 17.012 7.246 C 17.699 7.246 18.258 6.687 18.258 6 C 18.258 5.313 17.699 4.754 17.012 4.754 C 16.525 4.754 16.095 5.041 15.895 5.456 L 12.988 4.84 C 12.902 4.826 12.816 4.84 12.759 4.883 C 12.687 4.926 12.644 4.998 12.63 5.084 L 11.742 9.265 C 9.881 9.322 8.205 9.881 6.988 10.754 C 6.673 10.453 6.243 10.267 5.771 10.267 C 4.797 10.267 4.024 11.055 4.024 12.014 C 4.024 12.73 4.453 13.332 5.055 13.604 C 5.026 13.776 5.012 13.947 5.012 14.134 C 5.012 16.826 8.148 19.017 12.014 19.017 C 15.881 19.017 19.017 16.84 19.017 14.134 C 19.017 13.962 19.002 13.776 18.974 13.604 C 19.575 13.332 20.005 12.716 20.005 12 L 20.005 12 Z " fill-rule="evenodd" fill="url(#_lgradient_3)"/></g></g></g></g></svg>