<?xml version="1.0" encoding="UTF-8" standalone="no"?><!-- Generator: Gravit.io --><svg xmlns="http://www.w3.org/2000/svg" xmlns:xlink="http://www.w3.org/1999/xlink" style="isolation:isolate" viewBox="0 0 24 24" width="24pt" height="24pt"><defs><clipPath id="_clipPath_8gs4u7IzrhMFEQ0R7isVqNpmv7t1DAjj"><rect width="24" height="24"/></clipPath></defs><g clip-path="url(#_clipPath_8gs4u7IzrhMFEQ0R7isVqNpmv7t1DAjj)"><clipPath id="_clipPath_E3AYHAmqSqFqRJsb0XQ79wLk4XCdgReU"><rect x="0" y="0" width="24" height="24" transform="matrix(1,0,0,1,0,0)" fill="rgb(255,255,255)"/></clipPath><g clip-path="url(#_clipPath_E3AYHAmqSqFqRJsb0XQ79wLk4XCdgReU)"><g><path d=" M 24 4.557 C 23.117 4.949 22.168 5.213 21.172 5.332 C 22.189 4.723 22.97 3.758 23.337 2.608 C 22.386 3.172 21.332 3.582 20.21 3.803 C 19.313 2.846 18.032 2.248 16.616 2.248 C 13.437 2.248 11.101 5.214 11.819 8.293 C 7.728 8.088 4.1 6.128 1.671 3.149 C 0.381 5.362 1.002 8.257 3.194 9.723 C 2.388 9.697 1.628 9.476 0.965 9.107 C 0.911 11.388 2.546 13.522 4.914 13.997 C 4.221 14.185 3.462 14.229 2.69 14.081 C 3.316 16.037 5.134 17.46 7.29 17.5 C 5.22 19.123 2.612 19.848 0 19.54 C 2.179 20.937 4.768 21.752 7.548 21.752 C 16.69 21.752 21.855 14.031 21.543 7.106 C 22.505 6.411 23.34 5.544 24 4.557 Z " fill="rgb(151,60,243)"/><linearGradient id="_lgradient_4" x1="0.8371212360354527" y1="0.7257684835894298" x2="-0.21773109383271194" y2="-0.1897044375434569" gradientTransform="matrix(24,0,0,19.504,0,2.248)" gradientUnits="userSpaceOnUse"><stop offset="0%" stop-opacity="1" style="stop-color:rgb(151,60,243)"/><stop offset="98.75%" stop-opacity="1" style="stop-color:rgb(243,60,217)"/></linearGradient><path d=" M 24 4.557 C 23.117 4.949 22.168 5.213 21.172 5.332 C 22.189 4.723 22.97 3.758 23.337 2.608 C 22.386 3.172 21.332 3.582 20.21 3.803 C 19.313 2.846 18.032 2.248 16.616 2.248 C 13.437 2.248 11.101 5.214 11.819 8.293 C 7.728 8.088 4.1 6.128 1.671 3.149 C 0.381 5.362 1.002 8.257 3.194 9.723 C 2.388 9.697 1.628 9.476 0.965 9.107 C 0.911 11.388 2.546 13.522 4.914 13.997 C 4.221 14.185 3.462 14.229 2.69 14.081 C 3.316 16.037 5.134 17.46 7.29 17.5 C 5.22 19.123 2.612 19.848 0 19.54 C 2.179 20.937 4.768 21.752 7.548 21.752 C 16.69 21.752 21.855 14.031 21.543 7.106 C 22.505 6.411 23.34 5.544 24 4.557 Z " fill="url(#_lgradient_4)"/></g></g></g></svg>