<svg width="517" height="165" viewBox="0 0 517 165" fill="none" xmlns="http://www.w3.org/2000/svg">
<path d="M150.288 129.5H125.84C124.731 129.5 124.176 128.988 124.176 127.964V122.46C124.176 121.436 124.731 120.924 125.84 120.924H132.88V75.1H125.84C124.731 75.1 124.176 74.588 124.176 73.564V68.06C124.176 67.036 124.731 66.524 125.84 66.524H140.816C141.926 66.524 142.48 67.036 142.48 68.06V84.06H142.864C143.12 82.6947 144.016 80.8173 145.552 78.428C147.088 76.0387 148.752 74.076 150.544 72.54C152.422 70.9187 155.067 69.468 158.48 68.188C161.979 66.908 165.904 66.268 170.256 66.268C171.366 66.268 171.92 66.8227 171.92 67.932V74.716C171.92 75.8253 171.366 76.38 170.256 76.38H167.568C160.23 76.38 154.384 78.7267 150.032 83.42C145.68 88.1133 143.504 93.4467 143.504 99.42V120.924H150.288C151.398 120.924 151.952 121.436 151.952 122.46V127.964C151.952 128.988 151.398 129.5 150.288 129.5ZM240.399 129.5H229.263C225.594 129.5 223.759 127.708 223.759 124.124V117.596H223.503C217.274 126.215 208.954 130.524 198.543 130.524C192.399 130.524 187.365 128.945 183.439 125.788C179.514 122.545 177.551 118.193 177.551 112.732C177.551 105.735 180.581 100.615 186.639 97.372C192.783 94.044 201.189 92.38 211.855 92.38H222.607V90.844C222.607 80.1773 217.061 74.844 205.967 74.844C200.762 74.844 197.007 75.356 194.703 76.38C192.399 77.3187 190.735 78.0867 189.711 78.684C188.773 79.2813 188.047 79.7507 187.535 80.092C186.255 81.116 185.317 81.2013 184.719 80.348L181.135 75.868C180.538 75.1853 180.623 74.5027 181.391 73.82C182.842 71.9427 185.829 70.108 190.351 68.316C194.874 66.524 200.207 65.628 206.351 65.628C224.271 65.628 233.231 74.1613 233.231 91.228V120.924H240.399C241.423 120.924 241.935 121.436 241.935 122.46V127.964C241.935 128.988 241.423 129.5 240.399 129.5ZM222.607 100.06H212.495C207.546 100.06 203.45 100.316 200.207 100.828C196.965 101.34 194.191 102.449 191.887 104.156C189.669 105.863 188.559 108.209 188.559 111.196C188.559 114.183 189.754 116.657 192.143 118.62C194.618 120.497 197.818 121.436 201.743 121.436C210.021 121.436 216.975 117.767 222.607 110.428V100.06ZM279.616 159.452C275.35 159.452 272.107 159.153 269.888 158.556C267.755 157.959 266.006 157.404 264.64 156.892C263.36 156.465 262.251 155.996 261.312 155.484C260.374 155.057 259.478 154.588 258.624 154.076C254.87 151.601 253.462 149.809 254.4 148.7L257.728 143.964C258.24 143.196 258.966 143.153 259.904 143.836C259.99 143.836 260.246 144.007 260.672 144.348C261.184 144.775 261.654 145.159 262.08 145.5C262.592 145.841 263.232 146.225 264 146.652C264.854 147.164 265.792 147.591 266.816 147.932C267.84 148.359 268.95 148.743 270.144 149.084C272.96 149.852 276.075 150.236 279.488 150.236C285.632 150.236 290.539 148.743 294.208 145.756C297.963 142.855 299.84 138.247 299.84 131.932V117.34C298.304 120.924 295.744 123.996 292.16 126.556C288.662 129.116 284.267 130.396 278.976 130.396C270.272 130.396 263.275 127.367 257.984 121.308C252.779 115.249 250.176 107.399 250.176 97.756C250.176 88.1133 252.822 80.348 258.112 74.46C263.488 68.572 270.443 65.628 278.976 65.628C284.267 65.628 288.704 66.8653 292.288 69.34C295.958 71.7293 298.603 74.6733 300.224 78.172H300.48L300.352 68.06C300.352 67.036 300.864 66.524 301.888 66.524H316.992C318.016 66.524 318.528 67.036 318.528 68.06V73.564C318.528 74.588 318.016 75.1 316.992 75.1H310.08V131.932C310.08 141.063 307.264 147.932 301.632 152.54C296.086 157.148 288.747 159.452 279.616 159.452ZM260.672 98.012C260.672 105.009 262.55 110.684 266.304 115.036C270.059 119.303 274.752 121.436 280.384 121.436C286.016 121.436 290.667 119.303 294.336 115.036C298.091 110.769 299.968 105.052 299.968 97.884C299.968 90.716 298.091 85.0413 294.336 80.86C290.667 76.6787 286.016 74.588 280.384 74.588C274.752 74.588 270.059 76.7213 266.304 80.988C262.55 85.2547 260.672 90.9293 260.672 98.012ZM436.202 129.5H424.042C422.08 129.5 420.629 129.116 419.69 128.348C418.837 127.495 418.41 126.087 418.41 124.124V90.46C418.41 85.5107 417.216 81.6707 414.826 78.94C412.522 76.2093 409.066 74.844 404.458 74.844C397.717 74.844 392.426 77.788 388.586 83.676C389.098 85.212 389.354 86.9187 389.354 88.796V120.924H396.522C397.546 120.924 398.058 121.436 398.058 122.46V127.964C398.058 128.988 397.546 129.5 396.522 129.5H372.074C370.965 129.5 370.41 128.988 370.41 127.964V122.46C370.41 121.436 370.965 120.924 372.074 120.924H378.858V90.46C378.858 85.5107 377.664 81.6707 375.274 78.94C372.885 76.2093 369.386 74.844 364.778 74.844C361.28 74.844 358.592 75.3987 356.714 76.508C354.922 77.532 353.557 78.4707 352.618 79.324C351.68 80.092 350.912 80.86 350.314 81.628C349.29 82.9933 348.437 84.4013 347.754 85.852V120.924H354.026C355.05 120.924 355.562 121.436 355.562 122.46V127.964C355.562 128.988 355.05 129.5 354.026 129.5H330.09C328.981 129.5 328.426 128.988 328.426 127.964V122.46C328.426 121.436 328.981 120.924 330.09 120.924H337.13V75.1H330.09C328.981 75.1 328.426 74.588 328.426 73.564V68.06C328.426 67.036 328.981 66.524 330.09 66.524H342.634C344.085 66.524 345.109 66.8227 345.706 67.42C346.389 67.932 346.73 68.9133 346.73 70.364L346.474 76.764H346.858C351.296 69.34 358.165 65.628 367.466 65.628C376.853 65.628 383.253 69.1693 386.666 76.252C391.53 69.1693 398.4 65.628 407.274 65.628C414.101 65.628 419.392 67.6333 423.146 71.644C426.986 75.6547 428.906 81.0733 428.906 87.9L429.034 120.924H436.202C437.312 120.924 437.866 121.436 437.866 122.46V127.964C437.866 128.988 437.312 129.5 436.202 129.5ZM509.149 129.5H498.013C494.344 129.5 492.509 127.708 492.509 124.124V117.596H492.253C486.024 126.215 477.704 130.524 467.293 130.524C461.149 130.524 456.115 128.945 452.189 125.788C448.264 122.545 446.301 118.193 446.301 112.732C446.301 105.735 449.331 100.615 455.389 97.372C461.533 94.044 469.939 92.38 480.605 92.38H491.357V90.844C491.357 80.1773 485.811 74.844 474.717 74.844C469.512 74.844 465.757 75.356 463.453 76.38C461.149 77.3187 459.485 78.0867 458.461 78.684C457.523 79.2813 456.797 79.7507 456.285 80.092C455.005 81.116 454.067 81.2013 453.469 80.348L449.885 75.868C449.288 75.1853 449.373 74.5027 450.141 73.82C451.592 71.9427 454.579 70.108 459.101 68.316C463.624 66.524 468.957 65.628 475.101 65.628C493.021 65.628 501.981 74.1613 501.981 91.228V120.924H509.149C510.173 120.924 510.685 121.436 510.685 122.46V127.964C510.685 128.988 510.173 129.5 509.149 129.5ZM491.357 100.06H481.245C476.296 100.06 472.2 100.316 468.957 100.828C465.715 101.34 462.941 102.449 460.637 104.156C458.419 105.863 457.309 108.209 457.309 111.196C457.309 114.183 458.504 116.657 460.893 118.62C463.368 120.497 466.568 121.436 470.493 121.436C478.771 121.436 485.725 117.767 491.357 110.428V100.06Z" fill="#481180"/>
<path d="M59.0285 131.5H25.6205C24.5112 131.5 23.9565 130.988 23.9565 129.964V123.436C23.9565 122.412 24.5112 121.9 25.6205 121.9H35.3485V49.196H25.6205C24.5112 49.196 23.9565 48.684 23.9565 47.66V41.132C23.9565 40.108 24.5112 39.596 25.6205 39.596H65.0445C74.0898 39.596 81.4712 42.2413 87.1885 47.532C92.9912 52.7373 95.8925 59.82 95.8925 68.78C95.8925 77.6547 93.0765 84.5667 87.4445 89.516C81.8125 94.38 73.8765 96.812 63.6365 96.812H46.4845V121.9H59.0285C60.0525 121.9 60.5645 122.412 60.5645 123.436V129.964C60.5645 130.988 60.0525 131.5 59.0285 131.5ZM46.4845 87.724H63.1245C77.4605 87.724 84.6285 81.4093 84.6285 68.78C84.6285 62.2093 82.5805 57.3027 78.4845 54.06C74.4738 50.8173 69.3965 49.196 63.2525 49.196H46.4845V87.724Z" fill="#481180"/>
<rect x="3.8125" y="39.5625" width="46" height="9.625" fill="#481180"/>
<path fill-rule="evenodd" clip-rule="evenodd" d="M10.5625 121.5V39.5625H0.5625V129C0.5625 130.381 1.68179 131.5 3.0625 131.5H109.062C110.443 131.5 111.562 130.381 111.562 129V23C111.562 21.6193 110.443 20.5 109.062 20.5H3.0625C1.68179 20.5 0.5625 21.6193 0.5625 23V30.5H10.5625H13.4375H101.562V121.5H10.5625Z" fill="#481180"/>
</svg>
